<svg width="57" height="58" viewBox="0 0 57 58" fill="none" xmlns="http://www.w3.org/2000/svg">
<g id="agriculture-ecology-forest-garden-leaf-plant-8-svgrepo-com 1">
<path id="Vector" d="M14.4468 42.073H14.5152C14.6648 42.0621 14.8103 42.0187 14.942 41.9456C15.0737 41.8726 15.1884 41.7716 15.2785 41.6496L16.845 39.4862C17.0082 39.2608 17.0767 38.9787 17.0356 38.7019C16.9945 38.425 16.847 38.1762 16.6257 38.0101C16.4044 37.8439 16.1273 37.7741 15.8554 37.816C15.5835 37.8579 15.3391 38.008 15.176 38.2334L14.3386 39.3934L3.954 28.4546L19.8413 6.66977L34.1963 28.1298L23.5098 39.2368L22.8491 38.2798C22.7716 38.1655 22.6729 38.0679 22.5584 37.9925C22.4439 37.9171 22.316 37.8655 22.1819 37.8404C22.0478 37.8154 21.9102 37.8175 21.7769 37.8466C21.6436 37.8757 21.5172 37.9312 21.405 38.0101C21.2928 38.0889 21.1969 38.1895 21.1229 38.306C21.0489 38.4226 20.9981 38.5528 20.9735 38.6894C20.9489 38.8259 20.951 38.966 20.9795 39.1017C21.0081 39.2375 21.0627 39.3661 21.1401 39.4804L22.5187 41.5046C22.6053 41.6325 22.7187 41.7395 22.8506 41.8177C22.9826 41.8959 23.1299 41.9434 23.282 41.957C23.4339 41.971 23.587 41.9501 23.7299 41.8959C23.8729 41.8417 24.0021 41.7556 24.108 41.6438L36.2812 28.9998C36.4478 28.8246 36.5501 28.5963 36.5709 28.3534C36.5916 28.1104 36.5296 27.8676 36.3952 27.6658L20.7357 4.25117C20.6418 4.11267 20.5169 3.99889 20.3713 3.91922C20.2257 3.83956 20.0636 3.79628 19.8983 3.79297C19.7344 3.79273 19.5727 3.83077 19.4256 3.90417C19.2784 3.97758 19.1498 4.08438 19.0495 4.21637L1.76657 27.9094C1.6199 28.11 1.54798 28.3572 1.56363 28.6068C1.57928 28.8565 1.68148 29.0923 1.85202 29.2724L13.6892 41.7598C13.788 41.8615 13.9062 41.9418 14.0364 41.9956C14.1666 42.0495 14.3063 42.0758 14.4468 42.073Z" fill="#FAEFEB"/>
<path id="Vector_2" d="M19.1009 54.2067C19.2373 54.2075 19.3724 54.1807 19.4986 54.128C19.6247 54.0752 19.7393 53.9975 19.8357 53.8993C19.9321 53.8011 20.0085 53.6844 20.0603 53.556C20.1121 53.4276 20.1384 53.29 20.1377 53.1511V37.2243L29.1665 28.0313C29.263 27.9335 29.3396 27.8172 29.392 27.6892C29.4444 27.5612 29.4715 27.4239 29.4717 27.2852C29.472 27.1465 29.4454 27.0091 29.3935 26.8809C29.3417 26.7527 29.2655 26.6361 29.1694 26.5378C29.0732 26.4396 28.959 26.3616 28.8333 26.3083C28.7076 26.2549 28.5727 26.2274 28.4365 26.2271C28.3003 26.2268 28.1654 26.2539 28.0395 26.3067C27.9135 26.3595 27.799 26.4371 27.7025 26.5349L20.1377 34.2199V30.3629L26.0563 24.3599C26.1528 24.2621 26.2294 24.1458 26.2818 24.0178C26.3341 23.8898 26.3612 23.7525 26.3615 23.6138C26.3617 23.4751 26.3352 23.3377 26.2833 23.2095C26.2314 23.0813 26.1552 22.9647 26.0591 22.8664C25.963 22.7682 25.8488 22.6902 25.7231 22.6369C25.5973 22.5835 25.4625 22.556 25.3263 22.5557C25.1901 22.5554 25.0552 22.5825 24.9292 22.6353C24.8033 22.6881 24.6888 22.7657 24.5923 22.8635L20.1377 27.3759V19.3661C20.1377 19.0862 20.0284 18.8177 19.834 18.6197C19.6396 18.4218 19.3759 18.3105 19.1009 18.3105C18.826 18.3105 18.5623 18.4218 18.3678 18.6197C18.1734 18.8177 18.0642 19.0862 18.0642 19.3661V27.3759L13.6153 22.8403C13.4174 22.6419 13.1501 22.5317 12.8724 22.5338C12.5946 22.536 12.3291 22.6504 12.1342 22.8519C11.9393 23.0535 11.831 23.3255 11.8332 23.6084C11.8353 23.8912 11.9477 24.1615 12.1456 24.3599L18.0642 30.3629V34.2199L10.505 26.5349C10.4085 26.4367 10.294 26.3588 10.1679 26.3056C10.0418 26.2524 9.90665 26.225 9.77018 26.225C9.6337 26.225 9.49857 26.2524 9.37248 26.3056C9.2464 26.3588 9.13184 26.4367 9.03534 26.5349C8.93884 26.6332 8.86229 26.7498 8.81006 26.8782C8.75784 27.0066 8.73096 27.1442 8.73096 27.2831C8.73096 27.4221 8.75784 27.5597 8.81006 27.6881C8.86229 27.8164 8.93884 27.9331 9.03534 28.0313L18.0642 37.2243V53.1511C18.0642 53.4311 18.1734 53.6996 18.3678 53.8976C18.5623 54.0955 18.826 54.2067 19.1009 54.2067Z" fill="#FAEFEB"/>
<path id="Vector_3" d="M33.8774 36.3544L41.1175 46.3652C41.2142 46.4987 41.3404 46.6072 41.4858 46.6817C41.6313 46.7563 41.792 46.7949 41.9549 46.7944C42.1739 46.7929 42.3869 46.7219 42.5644 46.5914C42.6746 46.5094 42.7679 46.406 42.8387 46.2871C42.9096 46.1683 42.9567 46.0364 42.9773 45.8989C42.9979 45.7615 42.9917 45.6213 42.959 45.4863C42.9263 45.3514 42.8677 45.2243 42.7866 45.1124L36.0135 35.7454L44.7974 24.041L53.1142 35.8034L46.3924 45.0834C46.2301 45.3099 46.1624 45.5925 46.204 45.8696C46.2457 46.1467 46.3932 46.3957 46.6146 46.5624C46.7236 46.6452 46.8477 46.7051 46.9796 46.7388C47.1115 46.7725 47.2486 46.7793 47.3831 46.7588C47.5176 46.7383 47.6467 46.6909 47.7632 46.6194C47.8796 46.5479 47.981 46.4536 48.0615 46.342L55.2333 36.482C55.362 36.3017 55.4314 36.0844 55.4314 35.8614C55.4314 35.6385 55.362 35.4212 55.2333 35.2408L45.669 21.6514C45.5735 21.5173 45.4486 21.4076 45.3042 21.3311C45.1599 21.2546 45 21.2133 44.8373 21.2106C44.6752 21.2074 44.5146 21.2437 44.369 21.3163C44.2233 21.3889 44.0968 21.4959 43.9999 21.6282L33.8888 35.09C33.7531 35.2713 33.6786 35.4924 33.6766 35.7203C33.6745 35.9482 33.745 36.1707 33.8774 36.3544Z" fill="#FAEFEB"/>
<path id="Vector_4" d="M44.5639 54.2069C44.6993 54.2061 44.8333 54.1782 44.9581 54.1247C45.0829 54.0713 45.1961 53.9933 45.2913 53.8953C45.3866 53.7973 45.4619 53.6811 45.513 53.5535C45.5641 53.4258 45.5901 53.2891 45.5893 53.1513V41.2497L49.366 37.4101C49.5609 37.2116 49.6704 36.9425 49.6704 36.6619C49.6704 36.3812 49.5609 36.1121 49.366 35.9137C49.1711 35.7152 48.9068 35.6038 48.6312 35.6038C48.3556 35.6038 48.0912 35.7152 47.8964 35.9137L45.6178 38.2337V33.6401C45.6178 33.3601 45.5086 33.0916 45.3141 32.8937C45.1197 32.6957 44.856 32.5845 44.581 32.5845C44.3061 32.5845 44.0424 32.6957 43.8479 32.8937C43.6535 33.0916 43.5443 33.3601 43.5443 33.6401V37.9611L41.5448 35.9137C41.4483 35.8158 41.3338 35.7382 41.2079 35.6854C41.082 35.6326 40.947 35.6055 40.8108 35.6058C40.6746 35.6061 40.5398 35.6337 40.4141 35.687C40.2883 35.7403 40.1741 35.8183 40.078 35.9166C39.9819 36.0148 39.9057 36.1314 39.8538 36.2596C39.8019 36.3879 39.7754 36.5252 39.7756 36.6639C39.7759 36.8026 39.803 36.9399 39.8554 37.0679C39.9077 37.1959 39.9844 37.3122 40.0809 37.4101L43.4987 40.8901V53.1513C43.4987 53.2924 43.5264 53.432 43.5803 53.562C43.6341 53.692 43.7131 53.8097 43.8124 53.9081C43.9117 54.0065 44.0294 54.0837 44.1584 54.135C44.2875 54.1863 44.4254 54.2108 44.5639 54.2069Z" fill="#FAEFEB"/>
</g>
</svg>
