<svg width="57" height="58" viewBox="0 0 57 58" fill="none" xmlns="http://www.w3.org/2000/svg">
<g id="airconditioning-so-svgrepo-com 1" clip-path="url(#clip0_43_317)">
<g id="Group">
<path id="Vector" d="M40.9609 30.8125V32.625C40.9609 38.9392 43.8624 44.7552 48.6895 48.4966L49.1626 48.8522L50.6104 49.9068L48.5389 52.855L47.0911 51.8004C41.2288 47.5301 37.6115 40.7275 37.4096 33.2834L37.4006 32.625V30.8125H40.9609ZM19.5993 30.8125V32.625C19.5993 40.0966 16.1574 46.9839 10.4393 51.4024L9.92884 51.7858L8.48216 52.8419L6.40756 49.896L7.85423 48.8398C12.7951 45.2327 15.8443 39.507 16.03 33.2337L16.039 32.625V30.8125H19.5993ZM30.2801 30.8125V52.5625H26.7198V30.8125H30.2801ZM56.9821 3.625V29H0.0178223V3.625H56.9821ZM53.4218 7.25H3.57809V25.375H53.4218V7.25ZM49.8616 18.125V21.75H7.13836V18.125H49.8616Z" fill="#FAEFEB"/>
</g>
</g>
<defs>
<clipPath id="clip0_43_317">
<rect width="56.9643" height="58" fill="white" transform="translate(0.0178223)"/>
</clipPath>
</defs>
</svg>
