<svg width="46" height="47" viewBox="0 0 46 47" fill="none" xmlns="http://www.w3.org/2000/svg">
<g id="Architecture 1">
<path id="Vector" d="M38.094 21.0842C37.9669 21.0842 37.8399 21.0455 37.7318 20.9697L20.844 9.0858L3.95618 20.9697C3.76386 21.1045 3.51257 21.1221 3.30411 21.0133C3.09564 20.9052 2.96509 20.6897 2.96509 20.4552V15.9827C2.96509 15.7778 3.06476 15.5861 3.23181 15.4682L20.4818 3.32948C20.6994 3.17647 20.9886 3.17647 21.2062 3.32948L38.4562 15.4682C38.6232 15.5861 38.7229 15.7778 38.7229 15.9827V20.4552C38.7229 20.6897 38.5923 20.9052 38.3839 21.0133C38.2926 21.061 38.193 21.0842 38.094 21.0842ZM20.844 7.68761C20.9703 7.68761 21.0974 7.72551 21.2062 7.80202L37.4651 19.2438V16.3091L20.844 4.61327L4.2229 16.3091V19.2438L20.4818 7.80202C20.5906 7.72551 20.7176 7.68761 20.844 7.68761Z" fill="#B9562F"/>
<path id="Vector_2" d="M36.177 23.8795C35.8296 23.8795 35.5481 23.5981 35.5481 23.2506V19.1768C35.5481 18.8293 35.8296 18.5479 36.177 18.5479C36.5244 18.5479 36.8059 18.8293 36.8059 19.1768V23.2506C36.8059 23.5981 36.5244 23.8795 36.177 23.8795Z" fill="#B9562F"/>
<path id="Vector_3" d="M5.51099 35.7781C5.16354 35.7781 4.88208 35.4966 4.88208 35.1492V21.6621C4.88208 21.3147 5.16354 21.0332 5.51099 21.0332C5.85843 21.0332 6.13989 21.3147 6.13989 21.6621V35.1492C6.13989 35.4966 5.85843 35.7781 5.51099 35.7781Z" fill="#B9562F"/>
<path id="Vector_4" d="M28.511 9.86761C28.1635 9.86761 27.8821 9.58615 27.8821 9.23871V3.84387C27.8821 3.49643 28.1635 3.21497 28.511 3.21497H33.6216C33.969 3.21497 34.2505 3.49643 34.2505 3.84387C34.2505 4.19132 33.969 4.47278 33.6216 4.47278H29.1399V9.23871C29.1399 9.58615 28.8584 9.86761 28.511 9.86761Z" fill="#B9562F"/>
<path id="Vector_5" d="M33.6213 13.465C33.2739 13.465 32.9924 13.1835 32.9924 12.8361V7.03833C32.9924 6.69089 33.2739 6.40942 33.6213 6.40942C33.9688 6.40942 34.2502 6.69089 34.2502 7.03833V12.8361C34.2502 13.1835 33.9688 13.465 33.6213 13.465Z" fill="#B9562F"/>
<path id="Vector_6" d="M18.9271 35.7784C18.5797 35.7784 18.2982 35.4969 18.2982 35.1495V21.7228H9.9729V35.1495C9.9729 35.4969 9.69144 35.7784 9.34399 35.7784C8.99655 35.7784 8.71509 35.4969 8.71509 35.1495V21.0939C8.71509 20.7464 8.99655 20.465 9.34399 20.465H18.9271C19.2745 20.465 19.556 20.7464 19.556 21.0939V35.1495C19.556 35.4969 19.2745 35.7784 18.9271 35.7784Z" fill="#B9562F"/>
<path id="Vector_7" d="M27.7919 31.9431H22.1233C21.7758 31.9431 21.4944 31.6616 21.4944 31.3142V21.0938C21.4944 20.7463 21.7758 20.4648 22.1233 20.4648H32.3437C32.6912 20.4648 32.9726 20.7463 32.9726 21.0938V30.4529C32.9726 30.8004 32.6912 31.0818 32.3437 31.0818C31.9963 31.0818 31.7148 30.8004 31.7148 30.4529V21.7227H22.7522V30.6853H27.7919C28.1393 30.6853 28.4208 30.9667 28.4208 31.3142C28.4208 31.6616 28.1393 31.9431 27.7919 31.9431Z" fill="#B9562F"/>
<path id="Vector_8" d="M32.3437 28.752H22.1233C21.7758 28.752 21.4944 28.4705 21.4944 28.123C21.4944 27.7756 21.7758 27.4941 22.1233 27.4941H32.3437C32.6912 27.4941 32.9726 27.7756 32.9726 28.123C32.9726 28.4705 32.6912 28.752 32.3437 28.752Z" fill="#B9562F"/>
<path id="Vector_9" d="M27.2334 28.7523C26.886 28.7523 26.6045 28.4709 26.6045 28.1234V21.0939C26.6045 20.7464 26.886 20.465 27.2334 20.465C27.5808 20.465 27.8623 20.7464 27.8623 21.0939V28.1234C27.8623 28.4709 27.5808 28.7523 27.2334 28.7523Z" fill="#B9562F"/>
<path id="Vector_10" d="M32.3439 25.2366H22.1213C21.7739 25.2366 21.4924 24.9551 21.4924 24.6077C21.4924 24.2602 21.7739 23.9788 22.1213 23.9788H32.3439C32.6913 23.9788 32.9728 24.2602 32.9728 24.6077C32.9728 24.9551 32.6913 25.2366 32.3439 25.2366Z" fill="#B9562F"/>
<path id="Vector_11" d="M17.0108 30.0284H15.7327C15.3852 30.0284 15.1038 29.747 15.1038 29.3995C15.1038 29.0521 15.3852 28.7706 15.7327 28.7706H17.0108C17.3583 28.7706 17.6397 29.0521 17.6397 29.3995C17.6397 29.747 17.3583 30.0284 17.0108 30.0284Z" fill="#B9562F"/>
<path id="Vector_12" d="M20.8433 38.9728H3.59399C3.24655 38.9728 2.96509 38.6913 2.96509 38.3439V36.427C2.96509 35.3755 3.82 34.5206 4.87146 34.5206H27.6476C27.995 34.5206 28.2765 34.8021 28.2765 35.1495C28.2765 35.497 27.995 35.7784 27.6476 35.7784H4.87146C4.51419 35.7784 4.2229 36.0697 4.2229 36.427V37.715H20.8433C21.1907 37.715 21.4722 37.9965 21.4722 38.3439C21.4722 38.6913 21.1907 38.9728 20.8433 38.9728Z" fill="#B9562F"/>
<path id="Vector_13" d="M42.4064 43.2853H20.1406C19.8865 43.2853 19.657 43.1323 19.5594 42.8972C19.4625 42.662 19.5159 42.3918 19.6956 42.2114L41.8778 20.0298C41.9902 19.8565 42.1846 19.7421 42.4064 19.7421C42.7538 19.7421 43.0353 20.0235 43.0353 20.371V35.1489C43.0353 35.4963 42.7538 35.7778 42.4064 35.7778C42.0589 35.7778 41.7775 35.4963 41.7775 35.1489V21.9088L21.6588 42.0275H41.7775V38.3439C41.7775 37.9965 42.0589 37.715 42.4064 37.715C42.7538 37.715 43.0353 37.9965 43.0353 38.3439V42.6564C43.0353 43.0039 42.7538 43.2853 42.4064 43.2853ZM38.0939 38.9728H30.5519C30.2978 38.9728 30.0683 38.8198 29.9708 38.5847C29.8739 38.3495 29.9272 38.0793 30.1069 37.8989L37.6489 30.357C37.8293 30.1773 38.1002 30.1232 38.3346 30.2208C38.5698 30.3184 38.7228 30.5479 38.7228 30.802V38.3439C38.7228 38.6914 38.4413 38.9728 38.0939 38.9728ZM32.0701 37.715H37.465V32.3202L32.0701 37.715Z" fill="#B9562F"/>
</g>
</svg>
