<svg width="55" height="58" viewBox="0 0 55 58" fill="none" xmlns="http://www.w3.org/2000/svg">
<g id="arcticons:smart-home-manager">
<path id="Vector" d="M9.87744 33.0936C18.3276 33.2313 25.2958 40.8342 25.9493 50.6313M9.87744 39.1341C15.2307 39.2706 19.6767 44.1837 20.2837 50.6313M9.87744 45.2011C12.1791 45.3401 14.123 47.5694 14.6137 50.6313M44.901 26.3535V47.1489C44.902 47.5544 44.8296 47.9561 44.6878 48.331C44.5461 48.7058 44.3379 49.0464 44.0751 49.3332C43.8123 49.62 43.5002 49.8473 43.1566 50.002C42.8131 50.1568 42.4449 50.236 42.0732 50.235H29.8293" stroke="#FAEFEB" stroke-width="2.5" stroke-linecap="round" stroke-linejoin="round"/>
<path id="Vector_2" d="M7.00879 29.7252L27.5001 7.36865L35.7365 16.3562V9.64032H41.4907V22.6311L47.9914 29.7252" stroke="#FAEFEB" stroke-width="2.5" stroke-linecap="round" stroke-linejoin="round"/>
</g>
</svg>
