<svg width="55" height="58" viewBox="0 0 55 58" fill="none" xmlns="http://www.w3.org/2000/svg">
<g id="cil:layers">
<path id="Vector" d="M51.5849 18.3638L28.3245 3.86379C28.0734 3.70731 27.7893 3.625 27.5002 3.625C27.2111 3.625 26.9269 3.70731 26.6759 3.86379L3.41548 18.3638C3.15771 18.5244 2.94408 18.7573 2.7968 19.0385C2.64953 19.3196 2.57399 19.6387 2.57804 19.9625C2.58208 20.2863 2.66558 20.603 2.81983 20.8796C2.97408 21.1563 3.19345 21.3828 3.45514 21.5357L26.7156 35.1294C26.9569 35.2705 27.2264 35.3443 27.5002 35.3443C27.774 35.3443 28.0435 35.2705 28.2848 35.1294L51.5452 21.5357C51.8069 21.3828 52.0263 21.1563 52.1805 20.8796C52.3348 20.603 52.4183 20.2863 52.4223 19.9625C52.4264 19.6387 52.3508 19.3196 52.2036 19.0385C52.0563 18.7573 51.8427 18.5244 51.5849 18.3638ZM27.5002 31.4751L7.67057 19.8863L27.5002 7.52505L47.3298 19.8863L27.5002 31.4751Z" fill="#FAEFEB"/>
<path id="Vector_2" d="M28.3009 44.6351L50.7606 31.1592V27.022L27.5002 40.9783L4.23975 27.022V31.1592L26.6994 44.6351C26.9448 44.7822 27.2202 44.8594 27.5002 44.8594C27.7801 44.8594 28.0556 44.7822 28.3009 44.6351Z" fill="#FAEFEB"/>
<path id="Vector_3" d="M4.23975 41.0835L26.7183 54.1619C26.959 54.3019 27.2275 54.3751 27.5002 54.3751C27.7729 54.3751 28.0414 54.3019 28.282 54.1619L50.7606 41.0835V36.9751L27.5002 50.5085L4.23975 36.9751V41.0835Z" fill="#FAEFEB"/>
</g>
</svg>
