<svg width="57" height="58" viewBox="0 0 57 58" fill="none" xmlns="http://www.w3.org/2000/svg">
<g id="entrance-svgrepo-com 1" clip-path="url(#clip0_43_329)">
<g id="Group">
<g id="Group_2">
<path id="Vector" d="M54.0357 55V2C54.0357 1.448 53.5967 1 53.0535 1H3.94639C3.40327 1 2.96425 1.448 2.96425 2V55H0.0178223V57H3.94639H6.89282H34.3928H50.1071H53.0535H56.9821V55H54.0357ZM33.4107 55H7.87497V6H33.4107V55ZM35.375 55V6H49.125V55H35.375ZM51.0893 55V5C51.0893 4.448 50.6502 4 50.1071 4H34.3928H6.89282C6.3497 4 5.91068 4.448 5.91068 5V55H4.92854V3H52.0714V55H51.0893Z" fill="#FAEFEB"/>
<path id="Vector_2" d="M30.4643 18H28.5V45.08H30.4643V18Z" fill="#FAEFEB"/>
<path id="Vector_3" d="M40.98 12.7069L43.4845 10.1579C43.8685 9.76793 43.8685 9.13493 43.4845 8.74393C43.1004 8.35293 42.4797 8.35293 42.0957 8.74393L39.5912 11.2929C39.2072 11.6829 39.2072 12.3159 39.5912 12.7069C39.7828 12.9019 40.0342 12.9999 40.2856 12.9999C40.537 12.9999 40.7885 12.9019 40.98 12.7069Z" fill="#FAEFEB"/>
<path id="Vector_4" d="M45.0422 11.7439L40.0588 16.8179C39.6747 17.2089 39.6747 17.8409 40.0588 18.2319C40.2503 18.4269 40.5017 18.5249 40.7531 18.5249C41.0046 18.5249 41.256 18.4269 41.4475 18.2319L46.4309 13.1579C46.8149 12.7669 46.8149 12.1349 46.4309 11.7439C46.0469 11.3529 45.4252 11.3529 45.0422 11.7439Z" fill="#FAEFEB"/>
</g>
</g>
</g>
<defs>
<clipPath id="clip0_43_329">
<rect width="56.9643" height="58" fill="white" transform="translate(0.0178223)"/>
</clipPath>
</defs>
</svg>
