<svg width="90" height="90" viewBox="0 0 90 90" fill="none" xmlns="http://www.w3.org/2000/svg">
<g id="fluent:building-government-20-regular">
<path id="Vector" d="M40.5 11.25C40.5 10.6533 40.7371 10.081 41.159 9.65901C41.581 9.23705 42.1533 9 42.75 9H56.25C56.8467 9 57.419 9.23705 57.841 9.65901C58.2629 10.081 58.5 10.6533 58.5 11.25V15.75C58.5 16.3467 58.2629 16.919 57.841 17.341C57.419 17.7629 56.8467 18 56.25 18H45V22.5C50.9674 22.5 56.6903 24.8705 60.9099 29.0901C65.1295 33.3097 67.5 39.0326 67.5 45V49.5H72C74.3869 49.5 76.6761 50.4482 78.364 52.136C80.0518 53.8239 81 56.1131 81 58.5V76.5C81 77.6935 80.5259 78.8381 79.682 79.682C78.8381 80.5259 77.6935 81 76.5 81H13.5C12.3065 81 11.1619 80.5259 10.318 79.682C9.47411 78.8381 9 77.6935 9 76.5V58.5C9 56.1131 9.94821 53.8239 11.636 52.136C13.3239 50.4482 15.6131 49.5 18 49.5H22.5V45C22.4989 39.8131 24.29 34.7851 27.5701 30.7669C30.8502 26.7488 35.4179 23.9874 40.5 22.95V11.25ZM72 54H65.25C64.6533 54 64.081 53.7629 63.659 53.341C63.2371 52.919 63 52.3467 63 51.75V45C63 40.2261 61.1036 35.6477 57.7279 32.2721C54.3523 28.8964 49.7739 27 45 27C40.2261 27 35.6477 28.8964 32.2721 32.2721C28.8964 35.6477 27 40.2261 27 45V51.75C27 52.3467 26.7629 52.919 26.341 53.341C25.919 53.7629 25.3467 54 24.75 54H18C16.8065 54 15.6619 54.4741 14.818 55.318C13.9741 56.1619 13.5 57.3065 13.5 58.5V76.5H36V67.5C36 66.3065 36.4741 65.1619 37.318 64.318C38.1619 63.4741 39.3065 63 40.5 63H49.5C50.6935 63 51.8381 63.4741 52.682 64.318C53.5259 65.1619 54 66.3065 54 67.5V76.5H76.5V58.5C76.5 57.3065 76.0259 56.1619 75.182 55.318C74.3381 54.4741 73.1935 54 72 54ZM27 60.75C27 60.1533 26.7629 59.581 26.341 59.159C25.919 58.7371 25.3467 58.5 24.75 58.5C24.1533 58.5 23.581 58.7371 23.159 59.159C22.7371 59.581 22.5 60.1533 22.5 60.75V69.75C22.5 70.3467 22.7371 70.919 23.159 71.341C23.581 71.7629 24.1533 72 24.75 72C25.3467 72 25.919 71.7629 26.341 71.341C26.7629 70.919 27 70.3467 27 69.75V60.75ZM67.5 60.75C67.5 60.1533 67.2629 59.581 66.841 59.159C66.419 58.7371 65.8467 58.5 65.25 58.5C64.6533 58.5 64.081 58.7371 63.659 59.159C63.2371 59.581 63 60.1533 63 60.75V69.75C63 70.3467 63.2371 70.919 63.659 71.341C64.081 71.7629 64.6533 72 65.25 72C65.8467 72 66.419 71.7629 66.841 71.341C67.2629 70.919 67.5 70.3467 67.5 69.75V60.75ZM38.25 40.5C37.6533 40.5 37.081 40.7371 36.659 41.159C36.2371 41.581 36 42.1533 36 42.75V51.75C36 52.3467 36.2371 52.919 36.659 53.341C37.081 53.7629 37.6533 54 38.25 54C38.8467 54 39.419 53.7629 39.841 53.341C40.2629 52.919 40.5 52.3467 40.5 51.75V42.75C40.5 42.1533 40.2629 41.581 39.841 41.159C39.419 40.7371 38.8467 40.5 38.25 40.5ZM54 42.75C54 42.1533 53.7629 41.581 53.341 41.159C52.919 40.7371 52.3467 40.5 51.75 40.5C51.1533 40.5 50.581 40.7371 50.159 41.159C49.7371 41.581 49.5 42.1533 49.5 42.75V51.75C49.5 52.3467 49.7371 52.919 50.159 53.341C50.581 53.7629 51.1533 54 51.75 54C52.3467 54 52.919 53.7629 53.341 53.341C53.7629 52.919 54 52.3467 54 51.75V42.75ZM40.5 76.5H49.5V67.5H40.5V76.5Z" fill="white"/>
</g>
</svg>
