<svg width="55" height="58" viewBox="0 0 55 58" fill="none" xmlns="http://www.w3.org/2000/svg">
<g id="fluent:vehicle-car-28-regular">
<path id="Vector" d="M16.5166 34.1784C17.1461 34.1784 17.7498 33.9056 18.1949 33.42C18.64 32.9345 18.8901 32.2759 18.8901 31.5891C18.8901 30.9024 18.64 30.2438 18.1949 29.7582C17.7498 29.2727 17.1461 28.9999 16.5166 28.9999C15.8871 28.9999 15.2834 29.2727 14.8383 29.7582C14.3932 30.2438 14.1431 30.9024 14.1431 31.5891C14.1431 32.2759 14.3932 32.9345 14.8383 33.42C15.2834 33.9056 15.8871 34.1784 16.5166 34.1784ZM40.7264 31.5891C40.7264 32.2759 40.4764 32.9345 40.0312 33.42C39.5861 33.9056 38.9824 34.1784 38.3529 34.1784C37.7234 34.1784 37.1197 33.9056 36.6746 33.42C36.2295 32.9345 35.9794 32.2759 35.9794 31.5891C35.9794 30.9024 36.2295 30.2438 36.6746 29.7582C37.1197 29.2727 37.7234 28.9999 38.3529 28.9999C38.9824 28.9999 39.5861 29.2727 40.0312 29.7582C40.4764 30.2438 40.7264 30.9024 40.7264 31.5891ZM23.1624 34.1784C22.7847 34.1784 22.4225 34.3421 22.1554 34.6335C21.8884 34.9248 21.7383 35.32 21.7383 35.732C21.7383 36.144 21.8884 36.5392 22.1554 36.8305C22.4225 37.1219 22.7847 37.2856 23.1624 37.2856H31.7071C32.0848 37.2856 32.447 37.1219 32.7141 36.8305C32.9811 36.5392 33.1312 36.144 33.1312 35.732C33.1312 35.32 32.9811 34.9248 32.7141 34.6335C32.447 34.3421 32.0848 34.1784 31.7071 34.1784H23.1624ZM10.7765 19.6784L10.2448 21.9964C9.17468 22.3528 8.23778 23.0748 7.57218 24.056C6.90659 25.0372 6.54751 26.2257 6.54785 27.4463V46.0891C6.54785 47.5999 7.098 49.0488 8.07726 50.1171C9.05652 51.1854 10.3847 51.7856 11.7696 51.7856H13.6684C15.0533 51.7856 16.3814 51.1854 17.3607 50.1171C18.34 49.0488 18.8901 47.5999 18.8901 46.0891V44.0177H35.9794V46.0891C35.9794 47.5999 36.5295 49.0488 37.5088 50.1171C38.4881 51.1854 39.8162 51.7856 41.2011 51.7856H43.0999C44.4848 51.7856 45.813 51.1854 46.7923 50.1171C47.7715 49.0488 48.3217 47.5999 48.3217 46.0891V27.4463C48.3216 26.226 47.9623 25.038 47.2968 24.0572C46.6312 23.0764 45.6945 22.3548 44.6247 21.9984L44.093 19.6784H45.9482C46.3258 19.6784 46.6881 19.5148 46.9551 19.2234C47.2222 18.932 47.3723 18.5369 47.3723 18.1249C47.3723 17.7128 47.2222 17.3177 46.9551 17.0263C46.6881 16.735 46.3258 16.5713 45.9482 16.5713H43.381L42.2379 11.5791C41.8526 9.89872 40.9634 8.40701 39.7118 7.3411C38.4602 6.27519 36.9179 5.69625 35.33 5.69629H19.5395C17.9517 5.69625 16.4093 6.27519 15.1577 7.3411C13.9061 8.40701 13.017 9.89872 12.6316 11.5791L11.4886 16.5713H8.92136C8.54367 16.5713 8.18144 16.735 7.91437 17.0263C7.6473 17.3177 7.49726 17.7128 7.49726 18.1249C7.49726 18.5369 7.6473 18.932 7.91437 19.2234C8.18144 19.5148 8.54367 19.6784 8.92136 19.6784H10.7765ZM19.5395 8.80343H35.33C36.2828 8.80331 37.2083 9.15064 37.9593 9.79019C38.7104 10.4297 39.2439 11.3248 39.4751 12.3331L41.6322 21.7499H13.2374L15.3963 12.3331C15.6274 11.3252 16.1607 10.4303 16.9114 9.79083C17.662 9.15131 18.5871 8.80378 19.5395 8.80343ZM38.8276 46.0891V44.0177H45.4734V46.0891C45.4734 47.5184 44.4101 48.6784 43.0999 48.6784H41.2011C39.8909 48.6784 38.8276 47.5184 38.8276 46.0891ZM16.0419 44.0177V46.0891C16.0419 47.5184 14.9786 48.6784 13.6684 48.6784H11.7696C10.4594 48.6784 9.39607 47.5184 9.39607 46.0891V44.0177H16.0419ZM11.7696 24.857H43.0999C44.4101 24.857 45.4734 26.017 45.4734 27.4463V40.9106H9.39607V27.4463C9.39607 26.017 10.4594 24.857 11.7696 24.857Z" fill="#FAEFEB"/>
</g>
</svg>
