<svg width="57" height="58" viewBox="0 0 57 58" fill="none" xmlns="http://www.w3.org/2000/svg">
<g id="frost-windshield-svgrepo-com 1" clip-path="url(#clip0_43_306)">
<g id="Group">
<g id="Group_2">
<path id="Vector" d="M56.0327 7.7334H0.96719C0.397547 7.7334 0.0178223 8.12003 0.0178223 8.70003V41.5667C0.0178223 42.1467 0.397547 42.5333 0.96719 42.5333H22.7221C23.0786 45.9352 22.1551 48.4371 22.044 48.7199C21.7592 49.1065 21.7592 49.5899 22.044 49.8799C22.2339 50.1699 22.5187 50.2665 22.8035 50.2665C22.9935 50.2665 23.1833 50.1699 23.3732 49.9765C23.9428 49.5899 24.4176 47.3665 24.6074 46.0132C24.7279 45.0012 24.7713 43.8234 24.651 42.5332H34.115C34.4714 45.9351 33.548 48.4369 33.4368 48.7198C33.152 49.1064 33.152 49.5898 33.4368 49.8798C33.6268 50.1698 33.9116 50.2664 34.1964 50.2664C34.3863 50.2664 34.5761 50.1698 34.766 49.9764C35.3357 49.5898 35.8104 47.3664 36.0002 46.0131C36.1207 45.0011 36.1641 43.8233 36.0438 42.5331H45.5078C45.8643 45.935 44.9408 48.4368 44.8297 48.7197C44.5449 49.1063 44.5449 49.5897 44.8297 49.8797C45.0196 50.1697 45.3044 50.2663 45.5893 50.2663C45.7792 50.2663 45.969 50.1697 46.1589 49.9763C46.7285 49.5897 47.2033 47.3663 47.3931 46.013C47.5136 45.001 47.557 43.8232 47.4367 42.5329H56.0327C56.6024 42.5329 56.9821 42.1463 56.9821 41.5663V8.70003C56.9821 8.12003 56.6024 7.7334 56.0327 7.7334ZM24.3541 40.6C24.2189 39.9721 24.0398 39.3257 23.8116 38.6667H33.172C33.4302 39.326 33.6302 39.9726 33.7817 40.6H24.3541ZM14.9234 25.1334L17.1071 21.2668L19.2908 25.1334H14.9234ZM20.9047 27.0667C21.2844 27.0667 21.5692 26.8733 21.6643 26.5833C21.8542 26.2933 21.8542 25.9067 21.6643 25.6167L17.8667 18.85C17.5818 18.27 16.6325 18.27 16.2526 18.85L12.4551 25.6167C12.2651 25.9067 12.2651 26.2933 12.4551 26.5833C12.645 26.8733 12.9298 27.0667 13.3095 27.0667H16.1948C16.3281 28.563 16.9011 31.5631 19.2907 34.4133C19.9127 35.1886 20.4308 35.965 20.862 36.7333H5.71425V13.5333H51.2857V36.7333H45.7929C45.2172 35.5579 44.4674 34.3572 43.5005 33.1567C41.6129 30.8371 41.0642 28.3817 40.9056 27.0667H43.6903C44.07 27.0667 44.3548 26.8733 44.4499 26.5833C44.6398 26.2933 44.6398 25.9067 44.4499 25.6167L40.6524 18.85C40.3676 18.27 39.4182 18.27 39.0384 18.85L35.2408 25.6167C35.0509 25.9067 35.0509 26.2933 35.2408 26.5833C35.4307 26.8733 35.7155 27.0667 36.0952 27.0667H38.9805C39.1138 28.563 39.6868 31.5631 42.0764 34.4133C42.6984 35.1886 43.2166 35.965 43.6477 36.7333H34.4C33.8243 35.5579 33.0746 34.3572 32.1076 33.1567C30.22 30.8371 29.6713 28.3817 29.5128 27.0667H32.2975C32.6773 27.0667 32.9621 26.8733 33.0571 26.5833C33.247 26.2933 33.247 25.9067 33.0571 25.6167L29.2595 18.85C28.9747 18.27 28.0253 18.27 27.6455 18.85L23.8479 25.6167C23.658 25.9067 23.658 26.2933 23.8479 26.5833C24.0378 26.8733 24.3227 27.0667 24.7024 27.0667H27.5876C27.7209 28.563 28.2939 31.5631 30.6835 34.4133C31.3056 35.1886 31.8237 35.965 32.2548 36.7333H23.0071C22.4315 35.5579 21.6817 34.3572 20.7148 33.1567C18.8272 30.8371 18.2784 28.3817 18.1199 27.0667H20.9047ZM37.7092 25.1334L39.8928 21.2668L42.0765 25.1334H37.7092ZM26.3163 25.1334L28.5 21.2667L30.6836 25.1333H26.3163V25.1334ZM35.747 40.6C35.6117 39.9721 35.4327 39.3257 35.2045 38.6667H44.5649C44.823 39.326 45.0231 39.9726 45.1746 40.6H35.747ZM55.0833 40.6H47.1399C47.0046 39.9721 46.8256 39.3257 46.5974 38.6667H52.2351C52.8047 38.6667 53.1844 38.28 53.1844 37.7V12.5667C53.1844 11.9867 52.8047 11.6 52.2351 11.6H4.76488C4.19524 11.6 3.81552 11.9867 3.81552 12.5667V37.7C3.81552 38.28 4.19524 38.6667 4.76488 38.6667H21.7793C22.0374 39.326 22.2375 39.9726 22.389 40.6H1.91667V9.66666H55.0834L55.0833 40.6Z" fill="#FAEFEB"/>
</g>
</g>
</g>
<defs>
<clipPath id="clip0_43_306">
<rect width="56.9643" height="58" fill="white" transform="translate(0.0178223)"/>
</clipPath>
</defs>
</svg>
