<svg width="55" height="58" viewBox="0 0 55 58" fill="none" xmlns="http://www.w3.org/2000/svg">
<g id="Group">
<g id="Group_2">
<path id="Vector" d="M53.1988 0H46.1217C45.5909 0 45.2371 0.385981 45.2371 0.965009V22.4859C45.2371 23.5475 44.4409 24.3195 43.5562 24.3195H37.1792C36.6768 23.0742 35.9795 21.9416 35.1289 20.9693C35.0886 20.8914 35.0378 20.817 34.9753 20.7489C34.9128 20.6808 34.8447 20.6253 34.7732 20.5813C32.8652 18.595 30.2852 17.3712 27.4559 17.3712C23.1935 17.3712 19.4974 20.1488 17.8121 24.1266H8.87849C4.45533 24.1265 0.916748 27.9868 0.916748 32.812V56.9385C0.916748 57.5176 1.27056 57.9035 1.80134 57.9035H8.87849C9.40927 57.9035 9.76309 57.5176 9.76309 56.9385V35.5141C9.76309 34.4525 10.5592 33.6805 11.4439 33.6805H17.7714C18.2707 34.8878 18.9543 35.987 19.7828 36.9342C19.8232 37.0122 19.874 37.0866 19.9365 37.1546C20.0075 37.2321 20.0789 37.2933 20.1556 37.3397C22.0619 39.3156 24.6349 40.5325 27.4559 40.5325C30.2768 40.5325 32.8498 39.3158 34.7561 37.3397C34.8329 37.2934 34.9042 37.2321 34.9753 37.1546C35.0377 37.0866 35.0886 37.0122 35.1289 36.9342C35.9353 36.0123 36.6042 34.9464 37.0995 33.7769H46.0332C50.4564 33.7769 53.995 29.9167 54.0834 25.0914V0.965009C54.0835 0.385981 53.7297 0 53.1988 0ZM34.2922 35.0585L30.4969 30.9181C30.8123 30.3413 30.9944 29.6687 30.9944 28.9518C30.9944 28.2796 30.8345 27.6465 30.5546 27.0946L34.3027 22.8598C35.5507 24.5242 36.3023 26.6467 36.3023 28.9518C36.3023 31.2635 35.5466 33.3919 34.2922 35.0585ZM28.6944 30.3029C28.6633 30.3368 28.6359 30.3727 28.6103 30.4093C28.2997 30.7026 27.8964 30.8819 27.456 30.8819C27.0154 30.8819 26.6122 30.7026 26.3017 30.4093C26.2761 30.3727 26.2487 30.3368 26.2176 30.3029C26.1865 30.269 26.1536 30.2391 26.12 30.2111C25.8511 29.8723 25.6868 29.4324 25.6868 28.9519C25.6868 28.4969 25.8338 28.0781 26.0776 27.7471C26.0952 27.731 26.1129 27.7151 26.1291 27.6974C26.168 27.6549 26.2018 27.61 26.2321 27.5634C26.5506 27.2291 26.9819 27.0217 27.4561 27.0217C27.9303 27.0217 28.3615 27.2291 28.68 27.5634C28.7104 27.61 28.7442 27.6549 28.783 27.6974C28.7992 27.7151 28.817 27.731 28.8346 27.7471C29.0783 28.0781 29.2254 28.4969 29.2254 28.9519C29.2254 29.4325 29.0611 29.8724 28.7922 30.2111C28.7585 30.2391 28.7255 30.2688 28.6944 30.3029ZM20.6196 35.0585C20.0609 34.3162 19.6026 33.4815 19.2646 32.5806C19.2551 32.5273 19.2438 32.475 19.2287 32.4261C19.1528 32.2439 19.0854 32.0558 19.0247 31.8639C18.7557 30.944 18.6095 29.9658 18.6095 28.9519C18.6095 26.625 19.3748 24.4837 20.6441 22.8123L24.3607 27.088C24.0787 27.6415 23.9173 28.277 23.9173 28.9519C23.9173 29.6688 24.0994 30.3414 24.4149 30.9182L20.6196 35.0585ZM33.0671 21.5055L29.3548 25.6999C28.8052 25.3156 28.1535 25.0915 27.4559 25.0915C26.7609 25.0915 26.1116 25.3139 25.5633 25.6954L21.8885 21.4679C23.4117 20.1154 25.3506 19.3011 27.4559 19.3011C29.5811 19.3011 31.5374 20.1299 33.0671 21.5055ZM11.4439 31.8469C9.4977 31.8469 7.9939 33.584 7.9939 35.6106V55.9734H2.68604V32.812C2.68604 29.0483 5.42845 26.0566 8.87849 26.0566H17.1784C17.1279 26.2685 17.0833 26.4828 17.0439 26.6991C16.915 27.3499 16.8568 28.0006 16.8438 28.6513C16.8415 28.7512 16.8402 28.8514 16.8402 28.9518C16.8402 29.0521 16.8415 29.1524 16.8438 29.2522C16.8569 29.903 16.915 30.5536 17.0439 31.2044C17.0834 31.4207 17.128 31.6351 17.1784 31.847L11.4439 31.8469ZM21.8582 36.4095L25.6535 32.2691C26.1823 32.6132 26.7988 32.8119 27.456 32.8119C28.1131 32.8119 28.7297 32.6132 29.2585 32.2691L33.0538 36.4095C31.5261 37.778 29.5752 38.6023 27.456 38.6023C25.3368 38.6023 23.3858 37.778 21.8582 36.4095ZM52.2258 25.0915C52.2258 28.8552 49.4834 31.8469 46.0333 31.8469H37.7335C37.784 31.635 37.8286 31.4207 37.868 31.2043C37.9969 30.5536 38.0549 29.9029 38.068 29.2521C38.0703 29.1522 38.0716 29.052 38.0716 28.9517C38.0716 28.8513 38.0703 28.751 38.068 28.6512C38.0549 28.0004 37.9969 27.3498 37.868 26.699C37.8284 26.4827 37.7839 26.2683 37.7335 26.0565H43.4679C45.4141 26.0565 46.9179 24.3194 46.9179 22.2928V1.93013H52.2258V25.0915Z" fill="#FAEFEB"/>
</g>
</g>
</svg>
