<?xml version="1.0" encoding="UTF-8"?>
<svg id="Layer_1" data-name="Layer 1" xmlns="http://www.w3.org/2000/svg" viewBox="0 0 2000 2000">
  <defs>
    <style>
      .cls-1 {
        fill: #fff;
      }
    </style>
  </defs>
  <g>
    <g>
      <polygon class="cls-1" points="1739.6 1094.23 1896.7 1246.81 1566.47 1246.81 1410.86 1094.23 1410.86 909.17 1566.47 909.17 1566.47 1094.23 1739.6 1094.23"/>
      <polygon class="cls-1" points="1914.38 905.77 1914.38 1232.3 1760.83 1079.12 1758.76 1079.12 1758.76 882.05 1566.5 882.05 1566.5 753.19 1758.76 753.19 1914.38 905.77"/>
    </g>
    <rect class="cls-1" x="1410.86" y="753.19" width="117.91" height="115.59"/>
  </g>
  <g>
    <g>
      <path class="cls-1" d="M104,1117.51v-47.44h-18.38v-8.08h46.55l-1.23,8.08h-17.15v47.44h-9.81.02Z"/>
      <path class="cls-1" d="M178.87,1062.57l9.81-1.23v56.17h-9.81v-24.33h-29v24.33h-9.81v-54.96l9.81-1.23v23.77h29v-22.53.02Z"/>
      <path class="cls-1" d="M242.96,1118.18l-4.98-12.75h-26.71l-4.74,12.07h-10.12l22.62-55.37,11.42-1.23,22.29,55.93-9.81,1.3.02.04ZM214.46,1097.36h20.33l-10.12-25.97-10.21,25.97Z"/>
      <path class="cls-1" d="M299.32,1062.57l9.81-1.23v56.17h-9.81v-24.33h-29v24.33h-9.81v-54.96l9.81-1.23v23.77h29v-22.53.02Z"/>
      <path class="cls-1" d="M363.41,1118.18l-4.98-12.75h-26.71l-4.74,12.07h-10.12l22.62-55.37,11.42-1.23,22.29,55.93-9.81,1.3.02.04ZM334.91,1097.36h20.33l-10.12-25.97-10.21,25.97Z"/>
      <path class="cls-1" d="M404.08,1061.99c13.71,0,20.58,4.96,20.58,14.86,0,2.78-.7,5.23-2.09,7.34-1.39,2.13-3.43,3.66-6.17,4.58,3.32.72,5.79,2.22,7.43,4.58,1.64,2.33,2.45,5.16,2.45,8.48,0,5.39-1.68,9.36-5.03,11.87-3.34,2.54-8.39,3.79-15.15,3.79h-25.16v-55.52h23.12l.02.02ZM403.67,1085.35c3.64,0,6.4-.54,8.24-1.64,1.84-1.08,2.78-3.07,2.78-5.97s-.92-4.89-2.78-5.99c-1.86-1.12-4.6-1.68-8.24-1.68h-12.9v15.26h12.9v.02ZM390.77,1093.02v16.41h14.95c3.55,0,6.19-.63,7.97-1.89,1.77-1.26,2.65-3.34,2.65-6.28s-.88-5.12-2.65-6.37c-1.77-1.26-4.42-1.89-7.97-1.89h-14.95v.02Z"/>
      <path class="cls-1" d="M500.11,1113.67c-5.54,3.1-11.76,4.65-18.63,4.65-8.6,0-15.58-2.58-20.94-7.77-5.36-5.16-8.03-12.12-8.03-20.83s2.69-15.64,8.08-20.83c5.39-5.16,12.5-7.77,21.32-7.77,7.02,0,13.22,1.55,18.63,4.65l-1.64,8.57c-5.12-3.43-10.71-5.14-16.74-5.14s-10.68,1.82-14.25,5.43c-3.57,3.61-5.34,8.64-5.34,15.06s1.77,11.38,5.32,15.01c3.55,3.66,8.17,5.48,13.89,5.48,6.96,0,13.08-1.8,18.38-5.39v8.82l-.04.04Z"/>
      <path class="cls-1" d="M551.46,1118.18l-4.98-12.75h-26.71l-4.74,12.07h-10.12l22.62-55.37,11.42-1.23,22.29,55.93-9.81,1.3.02.04ZM522.96,1097.36h20.33l-10.12-25.97-10.21,25.97Z"/>
      <path class="cls-1" d="M592.77,1061.99c6.76,0,12.01,1.68,15.75,5.03,3.75,3.34,5.63,7.79,5.63,13.35s-1.89,10.08-5.63,13.44c-3.75,3.34-9,5.03-15.75,5.03h-13.96v18.69h-9.81v-55.52h23.77v-.02ZM592.37,1090.73c3.55,0,6.37-.9,8.53-2.69,2.15-1.8,3.23-4.35,3.23-7.68s-1.08-5.86-3.23-7.63c-2.15-1.77-5-2.65-8.53-2.65h-13.56v20.67h13.56v-.02Z"/>
      <path class="cls-1" d="M632.7,1117.51h-9.81v-54.96l9.81-1.23v56.2Z"/>
      <path class="cls-1" d="M659.09,1117.51v-47.44h-18.38v-8.08h46.55l-1.23,8.08h-17.15v47.44h-9.81.02Z"/>
      <path class="cls-1" d="M736,1118.18l-4.98-12.75h-26.71l-4.74,12.07h-10.12l22.62-55.37,11.42-1.23,22.29,55.93-9.81,1.3.02.04ZM707.5,1097.36h20.33l-10.12-25.97-10.21,25.97Z"/>
      <path class="cls-1" d="M753.55,1117.51v-54.96l9.81-1.23v48.09h29l1.23,8.08h-40.01l-.02.02Z"/>
      <path class="cls-1" d="M857.75,1118.34l-15.6-21.57h-11.6v20.74h-9.81v-55.52h24.17c6.64,0,11.67,1.46,15.06,4.4,3.41,2.94,5.09,7.25,5.09,12.9,0,4.24-1.12,7.77-3.39,10.53-2.27,2.78-5.45,4.62-9.61,5.54l15.84,21.72-10.21,1.23.04.02ZM830.55,1088.69h13.31c7.45,0,11.18-3.12,11.18-9.38s-3.73-9.22-11.18-9.22h-13.31v18.63-.02Z"/>
      <path class="cls-1" d="M876.29,1117.51v-55.52h39.03v8.08h-29.24v15.01h26.37l1.23,8.08h-27.6v16.25h30.05v8.08h-39.86l.02.02Z"/>
      <path class="cls-1" d="M967.74,1118.18l-4.98-12.75h-26.71l-4.74,12.07h-10.12l22.62-55.37,11.42-1.23,22.29,55.93-9.81,1.3.02.04ZM939.24,1097.36h20.33l-10.12-25.97-10.21,25.97Z"/>
      <path class="cls-1" d="M985.29,1117.51v-54.96l9.81-1.23v48.09h29l1.23,8.08h-40.01l-.02.02Z"/>
      <path class="cls-1" d="M1052.51,1117.51v-55.52h39.03v8.08h-29.24v15.01h26.37l1.23,8.08h-27.6v16.25h30.05v8.08h-39.86l.02.02Z"/>
      <path class="cls-1" d="M1100.11,1104.85c5.66,3.59,12.01,5.39,19.03,5.39,3.48,0,6.4-.61,8.73-1.8,2.33-1.19,3.5-3.16,3.5-5.88,0-1.84-.76-3.43-2.29-4.74s-3.41-2.31-5.68-3.03c-2.27-.7-4.71-1.55-7.34-2.54-2.65-.99-5.09-2.02-7.36-3.1-2.27-1.08-4.15-2.74-5.68-4.94-1.53-2.2-2.29-4.83-2.29-7.88,0-5.12,1.84-8.93,5.54-11.42,3.7-2.51,8.33-3.75,13.89-3.75,6.69,0,13.31,1.55,19.84,4.65l-1.23,8.66c-5.92-3.48-11.74-5.23-17.39-5.23-7.14,0-10.7,2.2-10.7,6.62,0,1.68.76,3.14,2.29,4.38s3.41,2.15,5.68,2.83c2.27.65,4.71,1.48,7.34,2.45,2.65.99,5.09,2.02,7.34,3.14,2.27,1.12,4.15,2.81,5.68,5.07,1.53,2.27,2.29,4.94,2.29,8.03s-.58,5.52-1.75,7.72c-1.17,2.2-2.78,3.93-4.83,5.18-2.04,1.26-4.26,2.18-6.67,2.78-2.4.61-4.98.9-7.77.9-7.56,0-14.32-1.55-20.24-4.65v-8.82l.07-.04Z"/>
      <path class="cls-1" d="M1164.61,1117.51v-47.44h-18.38v-8.08h46.55l-1.23,8.08h-17.15v47.44h-9.81.02Z"/>
      <path class="cls-1" d="M1241.52,1118.18l-4.98-12.75h-26.71l-4.74,12.07h-10.12l22.62-55.37,11.42-1.23,22.29,55.93-9.81,1.3.02.04ZM1213.04,1097.36h20.33l-10.12-25.97-10.21,25.97Z"/>
      <path class="cls-1" d="M1271.99,1117.51v-47.44h-18.38v-8.08h46.55l-1.23,8.08h-17.15v47.44h-9.81.02Z"/>
      <path class="cls-1" d="M1308.08,1117.51v-55.52h39.03v8.08h-29.24v15.01h26.37l1.23,8.08h-27.6v16.25h30.05v8.08h-39.86l.02.02Z"/>
    </g>
    <g>
      <path class="cls-1" d="M166.26,981.17c.97,0,1.44.43,1.44,1.3v10.28c0,.97-.49,1.44-1.44,1.44-8.89,0-15.44-2.06-19.68-6.22-9.74,5.03-18.47,7.52-26.19,7.52-9.74,0-17.73-3.32-23.95-9.99-6.22-6.67-9.34-14.9-9.34-24.73s3.14-18.56,9.4-25.61c6.26-7.05,14.23-10.57,23.88-10.57,5.88,0,12.34,1.35,19.39,4.06v-8.98l12.14-2.02.13,47.31c0,5.79,1.1,9.94,3.32,12.43,2.22,2.51,5.84,3.77,10.84,3.77h.04ZM119.4,900.45l-10.57,10.41-10.57-10.41,10.57-10.41,10.57,10.41ZM120.41,983.06c6.46.09,13.4-1.55,20.83-4.91-.97-3.28-1.44-7.27-1.44-12.01v-25.18c-7.81-2.6-14.14-3.9-18.96-3.9-6.46,0-11.74,2.27-15.84,6.8-4.11,4.53-6.15,10.12-6.15,16.79s2,11.67,6.01,15.91c3.99,4.24,9.18,6.42,15.55,6.51ZM142.4,900.45l-10.57,10.41-10.71-10.41,10.71-10.41,10.57,10.41Z"/>
      <path class="cls-1" d="M166.26,994.19c-.97,0-1.44-.47-1.44-1.44l.13-10.28c0-.88.49-1.3,1.44-1.3h11c12.05,0,18.09-6.04,18.09-18.09v-38.78l12.16-2.02v44.12c0,8.86-2.56,15.73-7.68,20.53-5.12,4.83-12.68,7.23-22.71,7.23h-11v.02ZM175.53,1026.46l-10.57-10.41,10.57-10.41,10.57,10.41-10.57,10.41ZM198.53,1026.46l-10.71-10.41,10.71-10.41,10.57,10.41-10.57,10.41Z"/>
      <path class="cls-1" d="M214.15,1025.29l-1.17-10.57c17.37,0,26.03-8.3,26.03-24.89l-.13-65.53,12.3-2.02v68c0,12.05-3.1,20.92-9.27,26.55-6.17,5.63-15.44,8.46-27.78,8.46h.02Z"/>
      <path class="cls-1" d="M303.56,994.19c-20.24,0-30.39-9.65-30.39-28.93l-.13-74.8,12.3-1.89v73.79c0,12.55,6.04,18.81,18.09,18.81.97,0,1.44.43,1.44,1.3l.13,10.28c0,.97-.47,1.44-1.44,1.44Z"/>
      <path class="cls-1" d="M385,981.17c.97,0,1.44.43,1.44,1.3v10.28c0,.97-.47,1.44-1.44,1.44-14.27,0-27.54-1.77-39.79-5.36-11,3.57-24.89,5.36-41.68,5.36-.97-.09-1.44-.58-1.44-1.44v-10.28c0-.88.49-1.3,1.44-1.3,8.39,0,15.91-.29,22.58-.88-8.89-6.67-13.31-15.19-13.31-25.61,0-8.77,3.03-16.09,9.11-21.93,6.08-5.84,13.64-8.75,22.71-8.75s16.88,2.96,22.87,8.89c5.97,5.92,8.98,13.2,8.98,21.77,0,10.32-4.44,18.76-13.31,25.32,5.7.76,12.97,1.17,21.84,1.17v.02ZM343.48,901.46l-10.57,10.41-10.57-10.41,10.57-10.41,10.57,10.41ZM344.2,936.17c-5.7,0-10.35,1.86-13.96,5.57-3.61,3.7-5.43,8.46-5.43,14.25,0,5.12,1.77,9.74,5.34,13.89,3.57,4.15,8.35,7.09,14.32,8.82,6.17-2.02,11.06-5.07,14.68-9.11,3.61-4.06,5.43-8.57,5.43-13.6,0-5.79-1.95-10.53-5.86-14.25-3.9-3.7-8.75-5.57-14.54-5.57h.02ZM366.49,901.46l-10.57,10.41-10.71-10.41,10.71-10.41,10.57,10.41Z"/>
      <path class="cls-1" d="M471.67,981.17c.97,0,1.44.43,1.44,1.3v10.28c0,.97-.49,1.44-1.44,1.44-16.88,0-30.48-2.56-40.8-7.68-6.46,2.9-13.13,4.89-19.97,6.01-6.84,1.1-15.49,1.66-25.9,1.66-.97-.09-1.44-.58-1.44-1.44v-10.28c0-.88.49-1.3,1.44-1.3,9.94,0,19.73-.88,29.38-2.6-5.12-6.08-9.45-11.78-13.02-17.15-3.57-5.36-7.52-12.12-11.87-20.33l4.62-11.13c13.51-6.93,25.7-10.41,36.6-10.41,9.65,0,17.64,2.56,24.01,7.68,6.37,5.12,9.54,11.63,9.54,19.52,0,5.5-1.68,11.06-5.07,16.72-3.37,5.63-8.35,10.77-14.9,15.42,7.72,1.55,16.83,2.31,27.33,2.31l.04-.02ZM428.7,931.98c-7.52-.09-16.25,2.18-26.19,6.8,4.24,8.19,8.21,15.01,11.94,20.47,3.7,5.45,8.26,11.22,13.67,17.28,6.93-3.37,12.61-7.47,17.01-12.3,4.4-4.83,6.58-9.31,6.58-13.47,0-5.59-2.09-10.12-6.28-13.6-4.2-3.48-9.76-5.21-16.72-5.21v.02Z"/>
      <path class="cls-1" d="M471.97,994.19c-.97,0-1.44-.47-1.44-1.44v-10.28c0-.88.54-1.3,1.59-1.3,12.05,0,18.09-6.26,18.09-18.81l.13-71.91,12.16-1.89v76.69c0,19.3-10.17,28.93-30.52,28.93h-.02Z"/>
      <path class="cls-1" d="M527.51,994.19v-103.73l12.3-1.89v105.61h-12.3Z"/>
      <path class="cls-1" d="M673.63,888.15v87.23h-.13v4.78c0,13.98-3.37,25-10.12,33.06-6.76,8.06-17.17,12.07-31.24,12.07-12.16,0-21.77-3.16-28.86-9.47-7.09-6.33-10.64-15.64-10.64-27.99,0-10.32,2.13-21.95,6.37-34.88l9.99,2.74c-3.37,9.94-5.07,19.57-5.07,28.93.09,9.07,2.65,15.93,7.68,20.62,5,4.67,12.1,7.02,21.28,7.02,9.65,0,16.81-2.72,21.48-8.17,4.67-5.45,7.02-13.87,7.02-25.25v-88.83l12.3-1.89h-.04Z"/>
      <path class="cls-1" d="M727.02,994.19c-20.24,0-30.39-9.65-30.39-28.93l-.13-74.8,12.3-1.89v73.79c0,12.55,6.04,18.81,18.09,18.81.97,0,1.44.43,1.44,1.3l.13,10.28c0,.97-.47,1.44-1.44,1.44Z"/>
      <path class="cls-1" d="M781.42,981.17c.97,0,1.44.43,1.44,1.3v10.28c0,.97-.47,1.44-1.44,1.44-8.98,0-17.26-3.52-24.89-10.57-5.21,7.05-15.04,10.57-29.51,10.57-.97,0-1.44-.47-1.44-1.44l.13-10.28c0-.88.49-1.3,1.44-1.3,7.72,0,13.33-1.41,16.85-4.26,3.52-2.85,5.27-7.45,5.27-13.82v-23.43l12.16-1.89v28.64c0,2.4-.25,4.91-.72,7.52,6.46,4.83,13.35,7.23,20.69,7.23v.02ZM753.64,916.94l-10.57,10.41-10.57-10.41,10.57-10.41,10.57,10.41ZM776.64,916.94l-10.57,10.41-10.7-10.41,10.7-10.41,10.57,10.41Z"/>
      <path class="cls-1" d="M835.8,981.17c.97,0,1.44.43,1.44,1.3v10.28c0,.97-.47,1.44-1.44,1.44-8.98,0-17.26-3.52-24.89-10.57-5.21,7.05-15.04,10.57-29.51,10.57-.97,0-1.44-.47-1.44-1.44l.13-10.28c0-.88.49-1.3,1.44-1.3,7.72,0,13.33-1.41,16.85-4.26,3.52-2.85,5.27-7.45,5.27-13.82v-23.43l12.16-1.89v28.64c0,2.4-.25,4.91-.72,7.52,6.46,4.83,13.35,7.23,20.69,7.23v.02ZM786.18,1016.05l10.57-10.41,10.57,10.41-10.57,10.41-10.57-10.41ZM809.05,1016.05l10.7-10.41,10.57,10.41-10.57,10.41-10.7-10.41Z"/>
      <path class="cls-1" d="M835.8,994.19c-.97,0-1.44-.47-1.44-1.44l.13-10.28c0-.88.49-1.3,1.44-1.3,12.16,0,18.22-6.04,18.22-18.09l-.13-38.78,12.3-2.02v44.12c0,8.86-2.58,15.73-7.74,20.53-5.16,4.83-12.75,7.23-22.78,7.23v.02ZM851.58,1026.59l-10.7-10.41,10.41-10.57,10.84,10.57-10.57,10.41h.02Z"/>
      <path class="cls-1" d="M919,994.19c-20.24,0-30.39-9.65-30.39-28.93l-.13-74.8,12.3-1.89v73.79c0,12.55,6.04,18.81,18.09,18.81.97,0,1.44.43,1.44,1.3l.13,10.28c0,.97-.47,1.44-1.44,1.44Z"/>
      <path class="cls-1" d="M962.69,932.99c10.62,0,19.08,2.72,25.38,8.17,6.31,5.45,9.47,12.81,9.47,22.06s-2.96,17.1-8.89,22.64c-5.92,5.54-13.87,8.33-23.79,8.33h-45.87c-.97,0-1.44-.47-1.44-1.44v-10.28c0-.88.49-1.3,1.44-1.3h44.84c6.67,0,11.89-1.59,15.71-4.78,3.82-3.19,5.72-7.61,5.72-13.31s-1.91-10.19-5.72-13.53c-3.82-3.32-9-4.98-15.55-4.98h-34.88l-6.67-11.71,43.27-51.21,11.87,6.22-40.67,45.13h25.76Z"/>
      <path class="cls-1" d="M1163.78,981.17c.97,0,1.44.43,1.44,1.3v10.28c0,.97-.49,1.44-1.44,1.44-8.19,0-15.87-3.14-23-9.4-4.91,5.99-12.68,9.11-23.3,9.4h-37.91c-11.58,0-20.38-2.69-26.39-8.1-6.04-5.41-9.04-13.4-9.04-24.01,0-8.01,1.46-18.51,4.33-31.53l10.7,1.44c-2.31,11.87-3.48,20.78-3.48,26.77,0,14.95,8.91,22.42,26.77,22.42h33.42c12.16,0,18.22-6.04,18.22-18.09v-23.43l12.3-1.89v28.64c0,3.37-.34,6.26-1.01,8.69,5.99,4.06,12.1,6.08,18.38,6.08h0ZM1088.71,1016.05l10.41-10.57,10.84,10.57-10.57,10.41-10.7-10.41h.02Z"/>
      <path class="cls-1" d="M1202.85,896.68c21.21-.09,37.88,4.58,49.98,14.03,12.1,9.45,18.16,22.24,18.16,38.33,0,9.07-1.73,20.4-5.21,34l-9.7,11.13h-45.13c-9.27,0-17.08-2.22-23.43-6.67-7.63,4.44-15.53,6.67-23.72,6.67-.97,0-1.44-.47-1.44-1.44v-10.28c0-.88.49-1.3,1.44-1.3,5.79,0,10.79-.92,15.04-2.74-3.57-5.79-5.34-12.72-5.34-20.83,0-9.65,3.05-17.64,9.18-24.01,6.13-6.37,14-9.54,23.65-9.54,8.98,0,16.63,3.21,23,9.63,6.37,6.42,9.54,13.96,9.54,22.64,0,7.34-1.73,15.62-5.21,24.89h20.69c3.19-11.29,4.78-21.66,4.78-31.11,0-5.41-1.17-10.57-3.48-15.49-2.31-4.91-5.75-9.36-10.28-13.31-4.53-3.95-10.59-7.11-18.16-9.47-7.56-2.36-16.14-3.55-25.67-3.55l1.3-11.58v-.02ZM1209.94,981.17h11.87c3.37-9.07,5.07-16.67,5.07-22.87s-1.91-11.04-5.72-15.49c-3.82-4.44-8.51-6.67-14.12-6.67-6.46,0-11.63,2-15.49,6.01-3.86,3.99-5.79,9.29-5.79,15.84,0,6.93,2.18,12.55,6.51,16.79,4.33,4.24,10.21,6.37,17.66,6.37h0Z"/>
      <path class="cls-1" d="M1281.26,994.19l-2.47-13.02h36.47c5.88,0,10.39-1.44,13.53-4.33,3.14-2.9,4.69-7,4.69-12.3l-.13-8.39c-.09-5.88-2.2-10.66-6.28-14.32-4.11-3.66-9.34-5.5-15.69-5.5h-8.53v-12.72h11.13c9.27,0,16.83,2.85,22.71,8.53,5.88,5.7,8.86,13.17,8.98,22.42l.13,11.87c-.09,8.86-2.72,15.73-7.88,20.53-5.16,4.83-12.75,7.23-22.78,7.23h-33.89ZM1311.94,909.85l-10.71-10.57,10.41-10.41,10.84,10.41-10.57,10.57h.02Z"/>
    </g>
  </g>
</svg>