<svg width="46" height="46" viewBox="0 0 46 46" fill="none" xmlns="http://www.w3.org/2000/svg">
<path d="M34.5 25.875H7.1875V14.375C16.2917 17.9828 25.3958 17.9828 34.5 14.375V25.875Z" fill="#B48A8A" fill-opacity="0.02"/>
<path d="M38.0938 33.7812H5.03125C4.23734 33.7812 3.59375 33.1377 3.59375 32.3438V30.1875H38.0938V33.7812Z" fill="#B48A8A" fill-opacity="0.02"/>
<path d="M10.7812 34.4102C10.4338 34.4102 10.1523 34.1287 10.1523 33.7812V19.4062C10.1523 17.7715 8.82223 16.4414 7.1875 16.4414C5.55277 16.4414 4.22266 17.7715 4.22266 19.4062V26.5938C4.22266 26.9412 3.94119 27.2227 3.59375 27.2227C3.24631 27.2227 2.96484 26.9412 2.96484 26.5938V19.4062C2.96484 17.078 4.85928 15.1836 7.1875 15.1836C9.51572 15.1836 11.4102 17.078 11.4102 19.4062V33.7812C11.4102 34.1287 11.1287 34.4102 10.7812 34.4102Z" fill="#B9562F"/>
<path d="M25.875 34.4102H5.03125C3.89206 34.4102 2.96484 33.4829 2.96484 32.3438V30.1875C2.96484 29.8401 3.24631 29.5586 3.59375 29.5586C3.94119 29.5586 4.22266 29.8401 4.22266 30.1875V32.3438C4.22266 32.7895 4.58554 33.1523 5.03125 33.1523H25.875C26.2224 33.1523 26.5039 33.4338 26.5039 33.7812C26.5039 34.1287 26.2224 34.4102 25.875 34.4102Z" fill="#B9562F"/>
<path d="M8.13647 37.2852H6.23853C5.22638 37.2852 4.40234 36.4611 4.40234 35.449V33.7812C4.40234 33.4338 4.68381 33.1523 5.03125 33.1523C5.37869 33.1523 5.66016 33.4338 5.66016 33.7812V35.449C5.66016 35.7676 5.91986 36.0273 6.23853 36.0273H8.13647C8.45514 36.0273 8.71484 35.7676 8.71484 35.449V33.7812C8.71484 33.4338 8.99631 33.1523 9.34375 33.1523C9.69119 33.1523 9.97266 33.4338 9.97266 33.7812V35.449C9.97266 36.4611 9.14862 37.2852 8.13647 37.2852Z" fill="#B9562F"/>
<path d="M30.9062 32.2679C30.5588 32.2679 30.2773 31.9865 30.2773 31.639V19.4062C30.2773 17.078 32.1718 15.1836 34.5 15.1836C35.6238 15.1836 36.6843 15.6209 37.4866 16.4147C38.2854 17.2219 38.7227 18.2825 38.7227 19.4062V20.843C38.7227 21.1905 38.4412 21.472 38.0938 21.472C37.7463 21.472 37.4648 21.1905 37.4648 20.843V19.4062C37.4648 18.6159 37.1567 17.8698 36.5973 17.304C36.0365 16.7495 35.2903 16.4414 34.5 16.4414C32.8653 16.4414 31.5352 17.7715 31.5352 19.4062V31.639C31.5352 31.9865 31.2537 32.2679 30.9062 32.2679Z" fill="#B9562F"/>
<path d="M30.9062 24.3477C30.5588 24.3477 30.2773 24.0662 30.2773 23.7188C30.2773 22.8765 29.5923 22.1914 28.75 22.1914H12.9375C12.0952 22.1914 11.4102 22.8765 11.4102 23.7188C11.4102 24.0662 11.1287 24.3477 10.7812 24.3477C10.4338 24.3477 10.1523 24.0662 10.1523 23.7188C10.1523 22.183 11.4017 20.9336 12.9375 20.9336H28.75C30.2858 20.9336 31.5352 22.183 31.5352 23.7188C31.5352 24.0662 31.2537 24.3477 30.9062 24.3477Z" fill="#B9562F"/>
<path d="M34.5 16.4414C34.1526 16.4414 33.8711 16.1599 33.8711 15.8125V6.72846C33.8711 5.34641 32.7284 4.22266 31.3232 4.22266H17.9688C17.6213 4.22266 17.3398 3.94119 17.3398 3.59375C17.3398 3.24631 17.6213 2.96484 17.9688 2.96484H31.3232C33.4219 2.96484 35.1289 4.65292 35.1289 6.72846V15.8125C35.1289 16.1599 34.8474 16.4414 34.5 16.4414Z" fill="#B9562F"/>
<path d="M7.1875 16.4414C6.84006 16.4414 6.55859 16.1599 6.55859 15.8125V6.72846C6.55859 4.65292 8.26562 2.96484 10.3643 2.96484H14.375C14.7224 2.96484 15.0039 3.24631 15.0039 3.59375C15.0039 3.94119 14.7224 4.22266 14.375 4.22266H10.3643C8.9591 4.22266 7.81641 5.34641 7.81641 6.72846V15.8125C7.81641 16.1599 7.53494 16.4414 7.1875 16.4414Z" fill="#B9562F"/>
<path d="M42.4061 43.0352H20.1403C19.8862 43.0352 19.6567 42.8821 19.5592 42.647C19.4623 42.4119 19.5156 42.1416 19.6953 41.9612L41.8867 19.7705C41.9997 19.6049 42.19 19.4961 42.4061 19.4961C42.7536 19.4961 43.035 19.7776 43.035 20.125V42.4062C43.035 42.7537 42.7536 43.0352 42.4061 43.0352ZM21.6586 41.7773H41.7772V21.6587L21.6586 41.7773ZM38.0936 38.7227H30.5517C30.2976 38.7227 30.0681 38.5696 29.9705 38.3345C29.8736 38.0994 29.927 37.8291 30.1067 37.6487L37.6486 30.1068C37.829 29.9271 38.0993 29.873 38.3344 29.9706C38.5695 30.0682 38.7225 30.2977 38.7225 30.5518V38.0938C38.7225 38.4412 38.4411 38.7227 38.0936 38.7227ZM32.0699 37.4648H37.4647V32.07L32.0699 37.4648Z" fill="#B9562F"/>
<path d="M30.9062 26.5039H13.6562C13.3088 26.5039 13.0273 26.2224 13.0273 25.875C13.0273 25.5276 13.3088 25.2461 13.6562 25.2461H30.9062C31.2537 25.2461 31.5352 25.5276 31.5352 25.875C31.5352 26.2224 31.2537 26.5039 30.9062 26.5039Z" fill="#B9562F"/>
<path d="M12.9375 10.9022C12.5901 10.9022 12.3086 10.6208 12.3086 10.2733V8.85547C12.3086 8.50803 12.5901 8.22656 12.9375 8.22656C13.2849 8.22656 13.5664 8.50803 13.5664 8.85547V10.2733C13.5664 10.6208 13.2849 10.9022 12.9375 10.9022Z" fill="#B9562F"/>
<path d="M28.75 10.9022C28.4026 10.9022 28.1211 10.6208 28.1211 10.2733V8.85547C28.1211 8.50803 28.4026 8.22656 28.75 8.22656C29.0974 8.22656 29.3789 8.50803 29.3789 8.85547V10.2733C29.3789 10.6208 29.0974 10.9022 28.75 10.9022Z" fill="#B9562F"/>
<path d="M20.8438 10.9022C20.4963 10.9022 20.2148 10.6208 20.2148 10.2733V8.85547C20.2148 8.50803 20.4963 8.22656 20.8438 8.22656C21.1912 8.22656 21.4727 8.50803 21.4727 8.85547V10.2733C21.4727 10.6208 21.1912 10.9022 20.8438 10.9022Z" fill="#B9562F"/>
<path d="M16.8906 17.8789C16.5432 17.8789 16.2617 17.5974 16.2617 17.25V15.8125C16.2617 15.4651 16.5432 15.1836 16.8906 15.1836C17.2381 15.1836 17.5195 15.4651 17.5195 15.8125V17.25C17.5195 17.5974 17.2381 17.8789 16.8906 17.8789Z" fill="#B9562F"/>
<path d="M24.7969 17.8789C24.4494 17.8789 24.168 17.5974 24.168 17.25V15.8125C24.168 15.4651 24.4494 15.1836 24.7969 15.1836C25.1443 15.1836 25.4258 15.4651 25.4258 15.8125V17.25C25.4258 17.5974 25.1443 17.8789 24.7969 17.8789Z" fill="#B9562F"/>
</svg>
