<svg width="46" height="47" viewBox="0 0 46 47" fill="none" xmlns="http://www.w3.org/2000/svg">
<g id="Interior Design 1">
<path id="Vector" d="M34.5 26.125H7.1875V14.625C16.2917 18.2328 25.3958 18.2328 34.5 14.625V26.125Z" fill="#B48A8A" fill-opacity="0.02"/>
<path id="Vector_2" d="M38.0938 34.0312H5.03125C4.23734 34.0312 3.59375 33.3877 3.59375 32.5938V30.4375H38.0938V34.0312Z" fill="#B48A8A" fill-opacity="0.02"/>
<path id="Vector_3" d="M10.7812 34.6602C10.4338 34.6602 10.1523 34.3787 10.1523 34.0312V19.6562C10.1523 18.0215 8.82223 16.6914 7.1875 16.6914C5.55277 16.6914 4.22266 18.0215 4.22266 19.6562V26.8438C4.22266 27.1912 3.94119 27.4727 3.59375 27.4727C3.24631 27.4727 2.96484 27.1912 2.96484 26.8438V19.6562C2.96484 17.328 4.85928 15.4336 7.1875 15.4336C9.51572 15.4336 11.4102 17.328 11.4102 19.6562V34.0312C11.4102 34.3787 11.1287 34.6602 10.7812 34.6602Z" fill="#B9562F"/>
<path id="Vector_4" d="M25.875 34.6602H5.03125C3.89206 34.6602 2.96484 33.7329 2.96484 32.5938V30.4375C2.96484 30.0901 3.24631 29.8086 3.59375 29.8086C3.94119 29.8086 4.22266 30.0901 4.22266 30.4375V32.5938C4.22266 33.0395 4.58554 33.4023 5.03125 33.4023H25.875C26.2224 33.4023 26.5039 33.6838 26.5039 34.0312C26.5039 34.3787 26.2224 34.6602 25.875 34.6602Z" fill="#B9562F"/>
<path id="Vector_5" d="M8.13647 37.5352H6.23853C5.22638 37.5352 4.40234 36.7111 4.40234 35.699V34.0312C4.40234 33.6838 4.68381 33.4023 5.03125 33.4023C5.37869 33.4023 5.66016 33.6838 5.66016 34.0312V35.699C5.66016 36.0176 5.91986 36.2773 6.23853 36.2773H8.13647C8.45514 36.2773 8.71484 36.0176 8.71484 35.699V34.0312C8.71484 33.6838 8.99631 33.4023 9.34375 33.4023C9.69119 33.4023 9.97266 33.6838 9.97266 34.0312V35.699C9.97266 36.7111 9.14862 37.5352 8.13647 37.5352Z" fill="#B9562F"/>
<path id="Vector_6" d="M30.9062 32.5179C30.5588 32.5179 30.2773 32.2365 30.2773 31.889V19.6562C30.2773 17.328 32.1718 15.4336 34.5 15.4336C35.6238 15.4336 36.6843 15.8709 37.4866 16.6647C38.2854 17.4719 38.7227 18.5325 38.7227 19.6562V21.093C38.7227 21.4405 38.4412 21.722 38.0938 21.722C37.7463 21.722 37.4648 21.4405 37.4648 21.093V19.6562C37.4648 18.8659 37.1567 18.1198 36.5973 17.554C36.0365 16.9995 35.2903 16.6914 34.5 16.6914C32.8653 16.6914 31.5352 18.0215 31.5352 19.6562V31.889C31.5352 32.2365 31.2537 32.5179 30.9062 32.5179Z" fill="#B9562F"/>
<path id="Vector_7" d="M30.9062 24.5977C30.5588 24.5977 30.2773 24.3162 30.2773 23.9688C30.2773 23.1265 29.5923 22.4414 28.75 22.4414H12.9375C12.0952 22.4414 11.4102 23.1265 11.4102 23.9688C11.4102 24.3162 11.1287 24.5977 10.7812 24.5977C10.4338 24.5977 10.1523 24.3162 10.1523 23.9688C10.1523 22.433 11.4017 21.1836 12.9375 21.1836H28.75C30.2858 21.1836 31.5352 22.433 31.5352 23.9688C31.5352 24.3162 31.2537 24.5977 30.9062 24.5977Z" fill="#B9562F"/>
<path id="Vector_8" d="M34.5 16.6914C34.1526 16.6914 33.8711 16.4099 33.8711 16.0625V6.97846C33.8711 5.59641 32.7284 4.47266 31.3232 4.47266H17.9688C17.6213 4.47266 17.3398 4.19119 17.3398 3.84375C17.3398 3.49631 17.6213 3.21484 17.9688 3.21484H31.3232C33.4219 3.21484 35.1289 4.90292 35.1289 6.97846V16.0625C35.1289 16.4099 34.8474 16.6914 34.5 16.6914Z" fill="#B9562F"/>
<path id="Vector_9" d="M7.1875 16.6914C6.84006 16.6914 6.55859 16.4099 6.55859 16.0625V6.97846C6.55859 4.90292 8.26562 3.21484 10.3643 3.21484H14.375C14.7224 3.21484 15.0039 3.49631 15.0039 3.84375C15.0039 4.19119 14.7224 4.47266 14.375 4.47266H10.3643C8.9591 4.47266 7.81641 5.59641 7.81641 6.97846V16.0625C7.81641 16.4099 7.53494 16.6914 7.1875 16.6914Z" fill="#B9562F"/>
<path id="Vector_10" d="M42.4061 43.2852H20.1403C19.8862 43.2852 19.6567 43.1321 19.5592 42.897C19.4623 42.6619 19.5156 42.3916 19.6953 42.2112L41.8867 20.0205C41.9997 19.8549 42.19 19.7461 42.4061 19.7461C42.7536 19.7461 43.035 20.0276 43.035 20.375V42.6562C43.035 43.0037 42.7536 43.2852 42.4061 43.2852ZM21.6586 42.0273H41.7772V21.9087L21.6586 42.0273ZM38.0936 38.9727H30.5517C30.2976 38.9727 30.0681 38.8196 29.9705 38.5845C29.8736 38.3494 29.927 38.0791 30.1067 37.8987L37.6486 30.3568C37.829 30.1771 38.0993 30.123 38.3344 30.2206C38.5695 30.3182 38.7225 30.5477 38.7225 30.8018V38.3438C38.7225 38.6912 38.4411 38.9727 38.0936 38.9727ZM32.0699 37.7148H37.4647V32.32L32.0699 37.7148Z" fill="#B9562F"/>
<path id="Vector_11" d="M30.9062 26.7539H13.6562C13.3088 26.7539 13.0273 26.4724 13.0273 26.125C13.0273 25.7776 13.3088 25.4961 13.6562 25.4961H30.9062C31.2537 25.4961 31.5352 25.7776 31.5352 26.125C31.5352 26.4724 31.2537 26.7539 30.9062 26.7539Z" fill="#B9562F"/>
<path id="Vector_12" d="M12.9375 11.1522C12.5901 11.1522 12.3086 10.8708 12.3086 10.5233V9.10547C12.3086 8.75803 12.5901 8.47656 12.9375 8.47656C13.2849 8.47656 13.5664 8.75803 13.5664 9.10547V10.5233C13.5664 10.8708 13.2849 11.1522 12.9375 11.1522Z" fill="#B9562F"/>
<path id="Vector_13" d="M28.75 11.1522C28.4026 11.1522 28.1211 10.8708 28.1211 10.5233V9.10547C28.1211 8.75803 28.4026 8.47656 28.75 8.47656C29.0974 8.47656 29.3789 8.75803 29.3789 9.10547V10.5233C29.3789 10.8708 29.0974 11.1522 28.75 11.1522Z" fill="#B9562F"/>
<path id="Vector_14" d="M20.8438 11.1522C20.4963 11.1522 20.2148 10.8708 20.2148 10.5233V9.10547C20.2148 8.75803 20.4963 8.47656 20.8438 8.47656C21.1912 8.47656 21.4727 8.75803 21.4727 9.10547V10.5233C21.4727 10.8708 21.1912 11.1522 20.8438 11.1522Z" fill="#B9562F"/>
<path id="Vector_15" d="M16.8906 18.1289C16.5432 18.1289 16.2617 17.8474 16.2617 17.5V16.0625C16.2617 15.7151 16.5432 15.4336 16.8906 15.4336C17.2381 15.4336 17.5195 15.7151 17.5195 16.0625V17.5C17.5195 17.8474 17.2381 18.1289 16.8906 18.1289Z" fill="#B9562F"/>
<path id="Vector_16" d="M24.7969 18.1289C24.4494 18.1289 24.168 17.8474 24.168 17.5V16.0625C24.168 15.7151 24.4494 15.4336 24.7969 15.4336C25.1443 15.4336 25.4258 15.7151 25.4258 16.0625V17.5C25.4258 17.8474 25.1443 18.1289 24.7969 18.1289Z" fill="#B9562F"/>
</g>
</svg>
