<svg width="18" height="18" viewBox="0 0 24 24" fill="none" xmlns="http://www.w3.org/2000/svg">
<g id="ix:light-dark">
<path id="Vector" fill-rule="evenodd" clip-rule="evenodd" d="M13 19V23H11V19H13ZM17.6568 16.2426L20.4853 19.071L19.0711 20.4853L16.2426 17.6568L17.6568 16.2426ZM6.34314 16.2426L7.75736 17.6568L4.92892 20.4853L3.5147 19.071L6.34314 16.2426ZM12 6.53217C15.0198 6.53217 17.4678 8.98017 17.4678 12C17.4678 15.0198 15.0198 17.4678 12 17.4678C11.2816 17.4692 10.57 17.3287 9.90595 17.0544C9.24194 16.7801 8.63863 16.3774 8.13062 15.8694C7.62261 15.3614 7.2199 14.7581 6.94559 14.0941C6.67129 13.4301 6.53078 12.7184 6.53214 12C6.53214 8.98017 8.98019 6.53217 12 6.53217ZM12 8.53214C10.0847 8.53214 8.53216 10.0848 8.53216 12.0038C8.53129 12.4589 8.6203 12.9098 8.79407 13.3304C8.96784 13.7511 9.22296 14.1333 9.5448 14.4552C10.1948 15.1052 11.0769 15.4695 12 15.4678V8.53214ZM23 11V13H19V11H23ZM4.99998 11V13H1V11H4.99998ZM4.92892 3.51469L7.75736 6.34313L6.34314 7.75734L3.5147 4.92891L4.92892 3.51469ZM19.0711 3.51469L20.4853 4.92891L17.6568 7.75734L16.2426 6.34313L19.0711 3.51469ZM13 0.999985V4.99997H10.9999V0.999985H13Z" fill="white"/>
</g>
</svg>
