<svg width="46" height="47" viewBox="0 0 46 47" fill="none" xmlns="http://www.w3.org/2000/svg">
<g id="Land 1">
<path id="Vector" d="M8.18006 30.7116L7.46131 31.4303C7.21635 31.676 7.21635 32.0747 7.46131 32.3204C7.58415 32.4432 7.74558 32.5043 7.90632 32.5043C8.06705 32.5043 8.22849 32.4432 8.35132 32.3204L9.07007 31.6016C9.31504 31.3559 9.31504 30.9573 9.07007 30.7116C8.82441 30.4659 8.42573 30.4659 8.18006 30.7116Z" fill="#B9562F"/>
<path id="Vector_2" d="M16.8051 33.5866L16.0863 34.3053C15.8413 34.551 15.8413 34.9497 16.0863 35.1954C16.2091 35.3182 16.3706 35.3793 16.5313 35.3793C16.6921 35.3793 16.8535 35.3182 16.9763 35.1954L17.6951 34.4766C17.94 34.2309 17.94 33.8323 17.6951 33.5866C17.4494 33.3409 17.0507 33.3409 16.8051 33.5866Z" fill="#B9562F"/>
<path id="Vector_3" d="M37.1013 33.5866C36.8557 33.3409 36.457 33.3409 36.2113 33.5866L35.4926 34.3053C35.2476 34.551 35.2476 34.9497 35.4926 35.1954C35.6154 35.3182 35.7768 35.3793 35.9376 35.3793C36.0983 35.3793 36.2597 35.3182 36.3826 35.1954L37.1013 34.4766C37.3463 34.2309 37.3463 33.8323 37.1013 33.5866Z" fill="#B9562F"/>
<path id="Vector_4" d="M26.8676 29.9928L26.1488 30.7116C25.9038 30.9573 25.9038 31.3559 26.1488 31.6016C26.2716 31.7244 26.4331 31.7855 26.5938 31.7855C26.7546 31.7855 26.916 31.7244 27.0388 31.6016L27.7576 30.8829C28.0025 30.6372 28.0025 30.2385 27.7576 29.9928C27.5119 29.7472 27.1132 29.7472 26.8676 29.9928Z" fill="#B9562F"/>
<path id="Vector_5" d="M26.1488 32.8678L25.4301 33.5866C25.1851 33.8323 25.1851 34.2309 25.4301 34.4766C25.5529 34.5994 25.7143 34.6605 25.8751 34.6605C26.0358 34.6605 26.1972 34.5994 26.3201 34.4766L27.0388 33.7579C27.2838 33.5122 27.2838 33.1135 27.0388 32.8678C26.7932 32.6222 26.3945 32.6222 26.1488 32.8678Z" fill="#B9562F"/>
<path id="Vector_6" d="M16.8051 29.9928L16.0863 30.7116C15.8413 30.9573 15.8413 31.3559 16.0863 31.6016C16.2091 31.7244 16.3706 31.7855 16.5313 31.7855C16.6921 31.7855 16.8535 31.7244 16.9763 31.6016L17.6951 30.8829C17.94 30.6372 17.94 30.2385 17.6951 29.9928C17.4494 29.7472 17.0507 29.7472 16.8051 29.9928Z" fill="#B9562F"/>
<path id="Vector_7" d="M33.184 23.5241L32.4652 24.2428C32.2203 24.4885 32.2203 24.8872 32.4652 25.1329C32.5881 25.2557 32.7495 25.3168 32.9102 25.3168C33.071 25.3168 33.2324 25.2557 33.3552 25.1329L34.074 24.4141C34.3189 24.1684 34.3189 23.7698 34.074 23.5241C33.8283 23.2784 33.4296 23.2784 33.184 23.5241Z" fill="#B9562F"/>
<path id="Vector_8" d="M12.4926 24.9616L11.7738 25.6803C11.5288 25.926 11.5288 26.3247 11.7738 26.5704C11.8966 26.6932 12.0581 26.7543 12.2188 26.7543C12.3796 26.7543 12.541 26.6932 12.6638 26.5704L13.3826 25.8516C13.6275 25.6059 13.6275 25.2073 13.3826 24.9616C13.1369 24.7159 12.7382 24.7159 12.4926 24.9616Z" fill="#B9562F"/>
<path id="Vector_9" d="M42.4065 40.5H3.59399V42.6562H42.4065V40.5Z" fill="#B9562F"/>
<path id="Vector_10" d="M24.4331 16.0469H21.5667V20.3748H24.4331V16.0469Z" fill="#B9562F"/>
<path id="Vector_11" d="M24.4331 18.2188H21.5667V20.375H24.4331V18.2188Z" fill="#B9562F"/>
<path id="Vector_12" d="M29.8002 11.5409C29.8957 11.5409 29.9932 11.5191 30.0845 11.4728C30.394 11.3149 30.5176 10.9365 30.3603 10.627C29.3959 8.73255 27.7647 7.29785 25.7664 6.58683C25.4421 6.47242 25.0792 6.64088 24.9634 6.96866C24.8469 7.29575 25.0174 7.65513 25.3452 7.77164C27.0389 8.37458 28.4217 9.59098 29.2387 11.1969C29.3503 11.4152 29.5707 11.5409 29.8002 11.5409Z" fill="#B9562F"/>
<path id="Vector_13" d="M29.7426 32.8678L29.0238 33.5866C28.7788 33.8323 28.7788 34.2309 29.0238 34.4766C29.1466 34.5994 29.3081 34.6605 29.4688 34.6605C29.6296 34.6605 29.791 34.5994 29.9138 34.4766L30.6326 33.7579C30.8775 33.5122 30.8775 33.1135 30.6326 32.8678C30.3869 32.6222 29.9882 32.6222 29.7426 32.8678Z" fill="white" fill-opacity="0.05"/>
<path id="Vector_14" d="M9.61756 32.8678L8.89881 33.5866C8.65385 33.8323 8.65385 34.2309 8.89881 34.4766C9.02165 34.5994 9.18308 34.6605 9.34382 34.6605C9.50455 34.6605 9.66599 34.5994 9.78882 34.4766L10.5076 33.7579C10.7525 33.5122 10.7525 33.1135 10.5076 32.8678C10.2619 32.6222 9.86323 32.6222 9.61756 32.8678Z" fill="white" fill-opacity="0.05"/>
<path id="Vector_15" d="M20.3988 31.4303L19.6801 32.1491C19.4351 32.3948 19.4351 32.7934 19.6801 33.0391C19.8029 33.1619 19.9643 33.223 20.1251 33.223C20.2858 33.223 20.4472 33.1619 20.5701 33.0391L21.2888 32.3204C21.5338 32.0747 21.5338 31.676 21.2888 31.4303C21.0432 31.1847 20.6445 31.1847 20.3988 31.4303Z" fill="white" fill-opacity="0.05"/>
<path id="Vector_16" d="M37.1013 30.7116C36.8557 30.4659 36.457 30.4659 36.2113 30.7116L35.4926 31.4303C35.2476 31.676 35.2476 32.0747 35.4926 32.3204C35.6154 32.4432 35.7768 32.5043 35.9376 32.5043C36.0983 32.5043 36.2597 32.4432 36.3826 32.3204L37.1013 31.6016C37.3463 31.3559 37.3463 30.9573 37.1013 30.7116Z" fill="white" fill-opacity="0.05"/>
<path id="Vector_17" d="M11.0551 22.8053L10.3363 23.5241C10.0913 23.7698 10.0913 24.1684 10.3363 24.4141C10.4591 24.5369 10.6206 24.598 10.7813 24.598C10.9421 24.598 11.1035 24.5369 11.2263 24.4141L11.9451 23.6954C12.19 23.4497 12.19 23.051 11.9451 22.8053C11.6994 22.5597 11.3007 22.5597 11.0551 22.8053Z" fill="white" fill-opacity="0.05"/>
<path id="Vector_18" d="M36.3826 25.8516C36.6275 25.6059 36.6275 25.2073 36.3826 24.9616C36.1369 24.7159 35.7382 24.7159 35.4926 24.9616L34.7738 25.6803C34.5288 25.926 34.5288 26.3247 34.7738 26.5704C34.8966 26.6932 35.0581 26.7543 35.2188 26.7543C35.3796 26.7543 35.541 26.6932 35.6638 26.5704L36.3826 25.8516Z" fill="white" fill-opacity="0.05"/>
<path id="Vector_19" d="M30.439 43.2852H3.59399C3.24655 43.2852 2.96509 43.0037 2.96509 42.6562V36.9062C2.96509 36.8333 2.97772 36.7603 3.00299 36.6915L8.75299 20.879C8.84354 20.6305 9.07937 20.4648 9.34399 20.4648H11.5002C11.8477 20.4648 12.1292 20.7463 12.1292 21.0938C12.1292 21.4412 11.8477 21.7227 11.5002 21.7227H9.78479L4.2229 37.0172V42.0273H30.439C30.7865 42.0273 31.0679 42.3088 31.0679 42.6562C31.0679 43.0037 30.7865 43.2852 30.439 43.2852Z" fill="#B9562F"/>
<path id="Vector_20" d="M42.4061 43.2852H34.4563C34.1089 43.2852 33.8274 43.0037 33.8274 42.6562C33.8274 42.3088 34.1089 42.0273 34.4563 42.0273H41.7772V37.0172L36.2153 21.7227H34.457C34.1096 21.7227 33.8281 21.4412 33.8281 21.0938C33.8281 20.7463 34.1096 20.4648 34.457 20.4648H36.6561C36.9207 20.4648 37.1565 20.6305 37.2471 20.879L42.9971 36.6915C43.0223 36.7603 43.035 36.8333 43.035 36.9062V42.6562C43.035 43.0037 42.7535 43.2852 42.4061 43.2852Z" fill="#B9562F"/>
<path id="Vector_21" d="M42.4066 37.5352H19.7512C19.4038 37.5352 19.1223 37.2537 19.1223 36.9062C19.1223 36.5588 19.4038 36.2773 19.7512 36.2773H42.4066C42.754 36.2773 43.0355 36.5588 43.0355 36.9062C43.0355 37.2537 42.754 37.5352 42.4066 37.5352Z" fill="#B9562F"/>
<path id="Vector_22" d="M16.5315 37.5352H3.59399C3.24655 37.5352 2.96509 37.2537 2.96509 36.9062C2.96509 36.5588 3.24655 36.2773 3.59399 36.2773H16.5315C16.8789 36.2773 17.1604 36.5588 17.1604 36.9062C17.1604 37.2537 16.8789 37.5352 16.5315 37.5352Z" fill="#B9562F"/>
<path id="Vector_23" d="M12.9386 37.5351C12.9 37.5351 12.8606 37.5316 12.8213 37.5239C12.4795 37.46 12.2556 37.1308 12.3202 36.7897L14.9439 22.8962C15.0085 22.5551 15.3384 22.3298 15.6781 22.395C16.0199 22.4589 16.2438 22.7881 16.1792 23.1292L13.5555 37.0227C13.4987 37.3245 13.2348 37.5351 12.9386 37.5351Z" fill="#B9562F"/>
<path id="Vector_24" d="M33.0616 37.5355C32.7654 37.5355 32.5015 37.3249 32.4446 37.0231L29.8209 23.1296C29.7563 22.7885 29.9802 22.4593 30.3221 22.3954C30.6646 22.3288 30.9917 22.5555 31.0563 22.8966L33.68 36.7901C33.7445 37.1312 33.5206 37.4604 33.1788 37.5243C33.1395 37.532 33.1002 37.5355 33.0616 37.5355Z" fill="#B9562F"/>
<path id="Vector_25" d="M22.9998 30.3476C21.1967 30.3476 17.5503 27.1477 15.0367 23.3602C13.5859 21.1815 11.8557 17.8502 11.8557 14.359C11.8557 12.6625 12.227 11.0326 12.9598 9.51653C13.1107 9.20489 13.4855 9.07504 13.8 9.22384C14.1123 9.37545 14.2436 9.75097 14.0927 10.064C13.4427 11.4082 13.1135 12.8534 13.1135 14.359C13.1135 17.5358 14.7293 20.6284 16.0847 22.6639C18.6481 26.5272 21.9442 29.0898 22.9999 29.0898C24.0555 29.0898 27.3517 26.5272 29.9143 22.6653C31.2704 20.6284 32.8862 17.5358 32.8862 14.359C32.8862 8.90729 28.4508 4.47266 22.9999 4.47266C20.2337 4.47266 17.6689 5.58588 15.778 7.60736C15.5407 7.86215 15.1434 7.87479 14.8894 7.63685C14.636 7.3996 14.6226 7.00162 14.8599 6.74823C16.96 4.50284 19.9269 3.21484 22.9999 3.21484C29.145 3.21484 34.144 8.21381 34.144 14.359C34.144 17.8502 32.4138 21.1815 30.9623 23.3616C28.4494 27.1477 24.803 30.3476 22.9998 30.3476Z" fill="#B9562F"/>
<path id="Vector_26" d="M27.8594 21.0039H18.1409C17.7934 21.0039 17.512 20.7225 17.512 20.375V13.6936C17.512 13.3462 17.7934 13.0647 18.1409 13.0647C18.4883 13.0647 18.7698 13.3462 18.7698 13.6936V19.7461H27.2305V16.0471C27.2305 15.6996 27.512 15.4182 27.8594 15.4182C28.2069 15.4182 28.4883 15.6996 28.4883 16.0471V20.375C28.4883 20.7225 28.2069 21.0039 27.8594 21.0039Z" fill="#B9562F"/>
<path id="Vector_27" d="M24.4332 21.0037C24.0858 21.0037 23.8043 20.7223 23.8043 20.3748V16.6758H22.1956V20.3748C22.1956 20.7223 21.9141 21.0037 21.5667 21.0037C21.2192 21.0037 20.9377 20.7223 20.9377 20.3748V16.0469C20.9377 15.6994 21.2192 15.418 21.5667 15.418H24.4332C24.7807 15.418 25.0621 15.6994 25.0621 16.0469V20.3748C25.0621 20.7223 24.7807 21.0037 24.4332 21.0037Z" fill="#B9562F"/>
<path id="Vector_28" d="M29.0734 14.3219H16.9263C16.6631 14.3219 16.4272 14.1576 16.336 13.9106C16.2447 13.6635 16.3177 13.3855 16.5178 13.2143L22.5914 8.03142C22.8272 7.83067 23.1725 7.83067 23.4084 8.03142L29.4819 13.2143C29.682 13.3855 29.755 13.6635 29.6637 13.9106C29.5725 14.1576 29.3366 14.3219 29.0734 14.3219ZM18.6319 13.0641H27.3678L22.9999 9.33696L18.6319 13.0641Z" fill="#B9562F"/>
<path id="Vector_29" d="M23.0002 37.5352C22.6528 37.5352 22.3713 37.2537 22.3713 36.9062V29.7188C22.3713 29.3713 22.6528 29.0898 23.0002 29.0898C23.3477 29.0898 23.6292 29.3713 23.6292 29.7188V36.9062C23.6292 37.2537 23.3477 37.5352 23.0002 37.5352Z" fill="#B9562F"/>
<path id="Vector_30" d="M20.2621 28.9102H6.72803C6.38058 28.9102 6.09912 28.6287 6.09912 28.2812C6.09912 27.9338 6.38058 27.6523 6.72803 27.6523H20.2621C20.6096 27.6523 20.8911 27.9338 20.8911 28.2812C20.8911 28.6287 20.6096 28.9102 20.2621 28.9102Z" fill="#B9562F"/>
<path id="Vector_31" d="M39.2724 28.9102H25.7383C25.3908 28.9102 25.1094 28.6287 25.1094 28.2812C25.1094 27.9338 25.3908 27.6523 25.7383 27.6523H39.2724C39.6198 27.6523 39.9013 27.9338 39.9013 28.2812C39.9013 28.6287 39.6198 28.9102 39.2724 28.9102Z" fill="#B9562F"/>
</g>
</svg>
