<svg width="33" height="41" viewBox="0 0 33 41" fill="none" xmlns="http://www.w3.org/2000/svg">
<path d="M16.1768 22.6667C19.3524 22.6667 21.9268 20.0924 21.9268 16.9167C21.9268 13.7411 19.3524 11.1667 16.1768 11.1667C13.0011 11.1667 10.4268 13.7411 10.4268 16.9167C10.4268 20.0924 13.0011 22.6667 16.1768 22.6667Z" stroke="#B9562F" stroke-width="1.5" stroke-linecap="round" stroke-linejoin="round"/>
<path d="M16.1768 1.58337C12.1102 1.58337 8.21009 3.19885 5.33454 6.0744C2.45898 8.94996 0.843506 12.8501 0.843506 16.9167C0.843506 20.543 1.61401 22.9159 3.71851 25.5417L16.1768 39.9167L28.6352 25.5417C30.7397 22.9159 31.5102 20.543 31.5102 16.9167C31.5102 12.8501 29.8947 8.94996 27.0191 6.0744C24.1436 3.19885 20.2435 1.58337 16.1768 1.58337Z" stroke="#B9562F" stroke-width="1.5" stroke-linecap="round" stroke-linejoin="round"/>
</svg>
