<svg width="90" height="90" viewBox="0 0 90 90" fill="none" xmlns="http://www.w3.org/2000/svg">
<g id="material-symbols-light:mosque-outline">
<path id="Vector" d="M5.625 76.8751V31.6389C4.5 31.0939 3.59375 30.3614 2.90625 29.4414C2.21875 28.5214 1.875 27.4576 1.875 26.2501C1.875 25.1501 2.36125 23.8689 3.33375 22.4064C4.30625 20.9439 5.695 19.3651 7.5 17.6701C9.3075 19.3676 10.6975 20.9464 11.67 22.4064C12.6425 23.8664 13.1275 25.1476 13.125 26.2501C13.125 27.4601 12.7812 28.5239 12.0938 29.4414C11.4062 30.3614 10.5 31.0939 9.375 31.6389V50.6251H20.625V41.2501C20.625 39.7851 21.1125 38.5139 22.0875 37.4364C23.0625 36.3589 24.32 35.7689 25.86 35.6664H28.4588C27.1438 34.4614 26.135 33.1014 25.4325 31.5864C24.73 30.0714 24.3775 28.4176 24.375 26.6251C24.375 24.4501 24.8975 22.4376 25.9425 20.5876C26.985 18.7426 28.385 17.2214 30.1425 16.0239L45 5.98511L59.8575 16.0239C61.615 17.2214 63.015 18.7439 64.0575 20.5914C65.1025 22.4414 65.625 24.4526 65.625 26.6251C65.625 28.4176 65.2725 30.0714 64.5675 31.5864C63.8625 33.1014 62.855 34.4626 61.545 35.6701H64.14C65.6775 35.7701 66.935 36.3576 67.9125 37.4326C68.8875 38.5126 69.375 39.7851 69.375 41.2501V50.6251H80.625V31.6389C79.5 31.0939 78.5938 30.3614 77.9062 29.4414C77.2188 28.5239 76.875 27.4601 76.875 26.2501C76.875 25.1501 77.3613 23.8689 78.3337 22.4064C79.3063 20.9439 80.695 19.3651 82.5 17.6701C84.3075 19.3676 85.6975 20.9464 86.67 22.4064C87.6425 23.8664 88.1275 25.1476 88.125 26.2501C88.125 27.4601 87.7812 28.5239 87.0938 29.4414C86.4062 30.3614 85.5 31.0939 84.375 31.6389V76.8751H50.625V63.7501C50.625 62.2076 50.0737 60.8839 48.9712 59.7789C47.8662 58.6764 46.5425 58.1251 45 58.1251C43.4575 58.1251 42.1338 58.6764 41.0288 59.7789C39.9237 60.8814 39.3725 62.2051 39.375 63.7501V76.8751H5.625ZM37.125 35.6251H52.875C55.355 35.6251 57.475 34.7451 59.235 32.9851C60.995 31.2251 61.875 29.1089 61.875 26.6364C61.875 25.0914 61.5212 23.6464 60.8137 22.3014C60.1062 20.9564 59.1087 19.8689 57.8212 19.0389L45 10.5151L32.175 19.0389C30.89 19.8714 29.8937 20.9589 29.1863 22.3014C28.4788 23.6439 28.125 25.0889 28.125 26.6364C28.125 29.1114 29.005 31.2276 30.765 32.9851C32.525 34.7426 34.645 35.6226 37.125 35.6251ZM9.375 73.1251H35.625V63.7501C35.625 61.1451 36.5363 58.9326 38.3587 57.1126C40.1787 55.2876 42.39 54.3751 44.9925 54.3751C47.595 54.3751 49.8088 55.2876 51.6338 57.1126C53.4588 58.9376 54.3725 61.1501 54.375 63.7501V73.1251H80.625V54.3751H65.625V41.2501C65.625 40.7201 65.445 40.2751 65.085 39.9151C64.725 39.5551 64.28 39.3751 63.75 39.3751H26.25C25.72 39.3751 25.275 39.5551 24.915 39.9151C24.555 40.2751 24.375 40.7201 24.375 41.2501V54.3751H9.375V73.1251Z" fill="black"/>
</g>
</svg>
