<svg width="55" height="58" viewBox="0 0 55 58" fill="none" xmlns="http://www.w3.org/2000/svg">
<g id="ph:bathtub-light">
<path id="Vector" d="M50.7606 22.2032H43.6994V21.7501C43.6994 21.3896 43.5681 21.0438 43.3344 20.7889C43.1007 20.5339 42.7838 20.3907 42.4533 20.3907H29.1616C28.8311 20.3907 28.5142 20.5339 28.2805 20.7889C28.0468 21.0438 27.9155 21.3896 27.9155 21.7501V22.2032H13.7931V11.7813C13.7931 10.9401 14.0995 10.1333 14.6447 9.53848C15.19 8.94364 15.9296 8.60946 16.7007 8.60946C17.3802 8.6081 18.0401 8.85803 18.5727 9.31847C19.1053 9.77891 19.4791 10.4227 19.6332 11.1447C19.6633 11.322 19.7255 11.4911 19.8162 11.6419C19.9068 11.7928 20.0241 11.9225 20.1611 12.0234C20.2981 12.1243 20.4522 12.1945 20.6144 12.2298C20.7765 12.2651 20.9435 12.2649 21.1055 12.2291C21.2676 12.1933 21.4215 12.1227 21.5583 12.0214C21.6951 11.9201 21.812 11.7901 21.9023 11.639C21.9926 11.4878 22.0544 11.3186 22.0841 11.1412C22.1139 10.9638 22.1109 10.7817 22.0755 10.6055C21.8126 9.26556 21.1346 8.0653 20.1557 7.20663C19.1769 6.34796 17.9568 5.88326 16.7007 5.89071C15.2686 5.89071 13.8951 6.51133 12.8825 7.61604C11.8698 8.72074 11.3009 10.219 11.3009 11.7813V22.2032H4.23975C3.90926 22.2032 3.59231 22.3464 3.35862 22.6014C3.12494 22.8563 2.99365 23.2021 2.99365 23.5626V32.6251C2.99695 35.8687 4.17957 38.9785 6.28205 41.2721C8.38452 43.5657 11.2351 44.8559 14.2085 44.8595H14.6239V48.9376C14.6239 49.2981 14.7551 49.6439 14.9888 49.8988C15.2225 50.1537 15.5395 50.297 15.87 50.297C16.2004 50.297 16.5174 50.1537 16.7511 49.8988C16.9848 49.6439 17.116 49.2981 17.116 48.9376V44.8595H37.8843V48.9376C37.8843 49.2981 38.0156 49.6439 38.2492 49.8988C38.4829 50.1537 38.7999 50.297 39.1304 50.297C39.4608 50.297 39.7778 50.1537 40.0115 49.8988C40.2452 49.6439 40.3765 49.2981 40.3765 48.9376V44.8595H40.7918C43.7652 44.8559 46.6158 43.5657 48.7183 41.2721C50.8208 38.9785 52.0034 35.8687 52.0067 32.6251V23.5626C52.0067 23.2021 51.8754 22.8563 51.6417 22.6014C51.408 22.3464 51.0911 22.2032 50.7606 22.2032ZM30.4077 23.1095H41.2072V31.2657H30.4077V23.1095ZM49.5145 32.6251C49.5145 35.1488 48.5955 37.5691 46.9597 39.3537C45.3239 41.1382 43.1052 42.1407 40.7918 42.1407H14.2085C11.8951 42.1407 9.67646 41.1382 8.04065 39.3537C6.40483 37.5691 5.48584 35.1488 5.48584 32.6251V24.922H27.9155V32.6251C27.9155 32.9856 28.0468 33.3314 28.2805 33.5863C28.5142 33.8412 28.8311 33.9845 29.1616 33.9845H42.4533C42.7838 33.9845 43.1007 33.8412 43.3344 33.5863C43.5681 33.3314 43.6994 32.9856 43.6994 32.6251V24.922H49.5145V32.6251Z" fill="#FAEFEB"/>
</g>
</svg>
