<svg width="100" height="100" viewBox="0 0 100 100" fill="none" xmlns="http://www.w3.org/2000/svg">
<g id="ph:hospital-light">
<path id="Vector" d="M96.875 82.0312H92.9688V50C92.9688 48.5496 92.3926 47.1586 91.367 46.133C90.3414 45.1074 88.9504 44.5312 87.5 44.5312H64.8438V18.75C64.8438 17.2996 64.2676 15.9086 63.242 14.883C62.2164 13.8574 60.8254 13.2812 59.375 13.2812H21.875C20.4246 13.2812 19.0336 13.8574 18.008 14.883C16.9824 15.9086 16.4062 17.2996 16.4062 18.75V82.0312H12.5C11.8784 82.0312 11.2823 82.2782 10.8427 82.7177C10.4032 83.1573 10.1562 83.7534 10.1562 84.375C10.1562 84.9966 10.4032 85.5927 10.8427 86.0323C11.2823 86.4718 11.8784 86.7188 12.5 86.7188H96.875C97.4966 86.7188 98.0927 86.4718 98.5323 86.0323C98.9718 85.5927 99.2188 84.9966 99.2188 84.375C99.2188 83.7534 98.9718 83.1573 98.5323 82.7177C98.0927 82.2782 97.4966 82.0312 96.875 82.0312ZM87.5 49.2188C87.7072 49.2188 87.9059 49.3011 88.0524 49.4476C88.1989 49.5941 88.2812 49.7928 88.2812 50V82.0312H64.8438V49.2188H87.5ZM21.0938 18.75C21.0938 18.5428 21.1761 18.3441 21.3226 18.1976C21.4691 18.0511 21.6678 17.9688 21.875 17.9688H59.375C59.5822 17.9688 59.7809 18.0511 59.9274 18.1976C60.0739 18.3441 60.1562 18.5428 60.1562 18.75V82.0312H52.3438V62.5C52.3438 61.8784 52.0968 61.2823 51.6573 60.8427C51.2177 60.4032 50.6216 60.1562 50 60.1562H31.25C30.6284 60.1562 30.0323 60.4032 29.5927 60.8427C29.1532 61.2823 28.9062 61.8784 28.9062 62.5V82.0312H21.0938V18.75ZM47.6562 82.0312H33.5938V64.8438H47.6562V82.0312ZM28.9062 37.5C28.9062 36.8784 29.1532 36.2823 29.5927 35.8427C30.0323 35.4032 30.6284 35.1562 31.25 35.1562H38.2812V28.125C38.2812 27.5034 38.5282 26.9073 38.9677 26.4677C39.4073 26.0282 40.0034 25.7812 40.625 25.7812C41.2466 25.7812 41.8427 26.0282 42.2823 26.4677C42.7218 26.9073 42.9688 27.5034 42.9688 28.125V35.1562H50C50.6216 35.1562 51.2177 35.4032 51.6573 35.8427C52.0968 36.2823 52.3438 36.8784 52.3438 37.5C52.3438 38.1216 52.0968 38.7177 51.6573 39.1573C51.2177 39.5968 50.6216 39.8438 50 39.8438H42.9688V46.875C42.9688 47.4966 42.7218 48.0927 42.2823 48.5323C41.8427 48.9718 41.2466 49.2188 40.625 49.2188C40.0034 49.2188 39.4073 48.9718 38.9677 48.5323C38.5282 48.0927 38.2812 47.4966 38.2812 46.875V39.8438H31.25C30.6284 39.8438 30.0323 39.5968 29.5927 39.1573C29.1532 38.7177 28.9062 38.1216 28.9062 37.5Z" fill="black"/>
</g>
</svg>
