<svg width="90" height="90" viewBox="0 0 90 90" fill="none" xmlns="http://www.w3.org/2000/svg">
<g id="ph:shopping-cart-light">
<path id="Vector" d="M80.3707 21.15C80.1728 20.9123 79.925 20.7211 79.6449 20.5899C79.3648 20.4587 79.0593 20.3906 78.75 20.3906H21.4453L19.2059 8.06133C19.1178 7.57528 18.8619 7.13557 18.4828 6.81883C18.1038 6.5021 17.6256 6.32844 17.1316 6.32812H8.4375C7.87806 6.32812 7.34153 6.55036 6.94595 6.94595C6.55036 7.34153 6.32812 7.87806 6.32812 8.4375C6.32812 8.99694 6.55036 9.53347 6.94595 9.92905C7.34153 10.3246 7.87806 10.5469 8.4375 10.5469H15.3703L24.4441 60.4477C24.7286 62.0211 25.4953 63.4671 26.6379 64.5855C25.257 65.6885 24.2256 67.1682 23.6683 68.8453C23.1111 70.5224 23.052 72.3251 23.4981 74.0352C23.9443 75.7452 24.8767 77.2892 26.1823 78.4803C27.4879 79.6713 29.1108 80.4584 30.8545 80.7461C32.5982 81.0338 34.388 80.8099 36.007 80.1014C37.6261 79.3929 39.005 78.2303 39.9769 76.7542C40.9488 75.2782 41.472 73.5521 41.4831 71.7848C41.4942 70.0176 40.9927 68.285 40.0395 66.7969H58.398C57.3049 68.5075 56.8124 70.5334 56.9981 72.5549C57.1838 74.5765 58.0372 76.4787 59.4237 77.9615C60.8101 79.4444 62.6508 80.4235 64.6553 80.7444C66.6599 81.0654 68.7142 80.7099 70.4943 79.734C72.2745 78.7581 73.6791 77.2175 74.4866 75.3549C75.2942 73.4924 75.4588 71.4141 74.9544 69.4476C74.45 67.4812 73.3053 65.7387 71.701 64.4949C70.0966 63.251 68.1238 62.5766 66.0938 62.5781H32.052C31.2286 62.5783 30.4313 62.2894 29.7992 61.7619C29.167 61.2345 28.74 60.5018 28.5926 59.6918L27.327 52.7344H68.9414C70.7528 52.7348 72.5068 52.0995 73.8978 50.9392C75.2887 49.7789 76.2283 48.1672 76.5527 46.3852L80.8242 22.8762C80.8794 22.5728 80.8674 22.261 80.789 21.9628C80.7107 21.6645 80.5679 21.3871 80.3707 21.15ZM37.2656 71.7188C37.2656 72.6922 36.977 73.6438 36.4361 74.4532C35.8953 75.2626 35.1266 75.8934 34.2273 76.266C33.3279 76.6385 32.3383 76.736 31.3835 76.5461C30.4288 76.3561 29.5518 75.8874 28.8635 75.199C28.1751 74.5107 27.7064 73.6337 27.5164 72.679C27.3265 71.7242 27.424 70.7346 27.7965 69.8352C28.1691 68.9359 28.7999 68.1672 29.6093 67.6264C30.4187 67.0855 31.3703 66.7969 32.3438 66.7969C33.6491 66.7969 34.901 67.3154 35.824 68.2385C36.7471 69.1615 37.2656 70.4134 37.2656 71.7188ZM71.0156 71.7188C71.0156 72.6922 70.727 73.6438 70.1861 74.4532C69.6453 75.2626 68.8766 75.8934 67.9773 76.266C67.0779 76.6385 66.0883 76.736 65.1335 76.5461C64.1788 76.3561 63.3018 75.8874 62.6135 75.199C61.9251 74.5107 61.4564 73.6337 61.2664 72.679C61.0765 71.7242 61.174 70.7346 61.5465 69.8352C61.9191 68.9359 62.5499 68.1672 63.3593 67.6264C64.1687 67.0855 65.1203 66.7969 66.0938 66.7969C67.3991 66.7969 68.651 67.3154 69.574 68.2385C70.4971 69.1615 71.0156 70.4134 71.0156 71.7188ZM72.4008 45.6293C72.2534 46.4393 71.8264 47.172 71.1942 47.6994C70.562 48.2269 69.7647 48.5158 68.9414 48.5156H26.5605L22.2152 24.6094H76.2223L72.4008 45.6293Z" fill="white"/>
</g>
</svg>
