<svg width="90" height="90" viewBox="0 0 90 90" fill="none" xmlns="http://www.w3.org/2000/svg">
<g id="ph:tree-light">
<path id="Vector" d="M69.0997 22.5317C67.1508 17.7386 63.8168 13.6354 59.5239 10.7468C55.2311 7.85812 50.1743 6.31519 45.0001 6.31519C39.8258 6.31519 34.7691 7.85812 30.4762 10.7468C26.1834 13.6354 22.8494 17.7386 20.9005 22.5317C16.5646 24.4546 12.8798 27.5943 10.2932 31.57C7.70658 35.5458 6.32922 40.1867 6.32821 44.9298C6.29305 57.9763 17.2723 69.2579 30.3013 69.6095C34.6996 69.7125 39.0456 68.6397 42.8907 66.5017V81.5626C42.8907 82.1221 43.1129 82.6586 43.5085 83.0542C43.9041 83.4498 44.4406 83.672 45.0001 83.672C45.5595 83.672 46.0961 83.4498 46.4916 83.0542C46.8872 82.6586 47.1095 82.1221 47.1095 81.5626V66.5017C50.7655 68.5354 54.879 69.6049 59.0626 69.6095H59.6849C72.7278 69.2579 83.7071 57.9728 83.672 44.9298C83.671 40.1867 82.2936 35.5458 79.707 31.57C77.1203 27.5943 73.4356 24.4546 69.0997 22.5317ZM59.5899 65.3907C55.1178 65.5087 50.7314 64.1495 47.1095 61.5235V46.3044L62.8173 38.4505C63.318 38.2006 63.6989 37.7621 63.8763 37.2313C64.0536 36.7006 64.0129 36.1211 63.763 35.6204C63.5131 35.1197 63.0745 34.7388 62.5438 34.5614C62.0131 34.3841 61.4336 34.4248 60.9329 34.6747L47.1095 41.5864V30.9376C47.1095 30.3782 46.8872 29.8416 46.4916 29.4461C46.0961 29.0505 45.5595 28.8282 45.0001 28.8282C44.4406 28.8282 43.9041 29.0505 43.5085 29.4461C43.1129 29.8416 42.8907 30.3782 42.8907 30.9376V50.0239L29.0673 43.1122C28.5666 42.8623 27.9871 42.8216 27.4564 42.9989C26.9256 43.1763 26.4871 43.5572 26.2372 44.0579C25.9873 44.5586 25.9466 45.1381 26.1239 45.6688C26.3013 46.1996 26.6822 46.6381 27.1829 46.888L42.8907 54.7419V61.5235C39.2662 64.1443 34.8816 65.5029 30.4102 65.3907C19.6138 65.12 10.5188 55.7579 10.547 44.9509C10.5467 40.8878 11.765 36.9179 14.0444 33.5544C16.3237 30.1908 19.5594 27.5881 23.3333 26.0825C23.6073 25.9718 23.855 25.8047 24.0603 25.5922C24.2656 25.3796 24.424 25.1262 24.5251 24.8485C26.0579 20.6501 28.8443 17.0244 32.5067 14.4626C36.1692 11.9008 40.5306 10.5268 45.0001 10.5268C49.4696 10.5268 53.831 11.9008 57.4935 14.4626C61.1559 17.0244 63.9423 20.6501 65.4751 24.8485C65.5762 25.1262 65.7346 25.3796 65.9399 25.5922C66.1452 25.8047 66.3929 25.9718 66.6669 26.0825C70.4394 27.587 73.6742 30.188 75.9534 33.5496C78.2327 36.9112 79.4518 40.8789 79.4532 44.9403C79.4813 55.7509 70.3864 65.1095 59.5899 65.3907Z" fill="black"/>
</g>
</svg>
