<svg width="57" height="58" viewBox="0 0 57 58" fill="none" xmlns="http://www.w3.org/2000/svg">
<g id="pool-svgrepo-com 1">
<path id="Vector" d="M52.1399 40.9512C51.1306 40.4717 49.8746 39.875 47.5723 39.875C45.2701 39.875 44.014 40.4718 43.0048 40.9512C42.139 41.3625 41.4552 41.6875 39.9427 41.6875C38.4301 41.6875 37.7465 41.3626 36.8808 40.9512C35.8716 40.4718 34.6157 39.875 32.3135 39.875C30.0112 39.875 28.7553 40.4719 27.7462 40.9512C26.8805 41.3625 26.1968 41.6875 24.6845 41.6875C23.1721 41.6875 22.4886 41.3626 21.623 40.9512C20.6139 40.4718 19.358 39.875 17.0558 39.875C14.7537 39.875 13.4977 40.4719 12.4886 40.9512C11.6229 41.3625 10.9392 41.6875 9.42684 41.6875C7.9145 41.6875 7.23082 41.3626 6.36512 40.9512C5.35601 40.4719 4.10001 39.875 1.79785 39.875V43.5C3.31019 43.5 3.99387 43.8249 4.85957 44.2363C5.86868 44.7157 7.12468 45.3125 9.42684 45.3125C11.729 45.3125 12.985 44.7156 13.9941 44.2363C14.8598 43.825 15.5435 43.5 17.0558 43.5C18.5682 43.5 19.2517 43.8249 20.1173 44.2363C21.1264 44.7157 22.3823 45.3125 24.6845 45.3125C26.9866 45.3125 28.2426 44.7156 29.2517 44.2363C30.1174 43.825 30.8012 43.5 32.3135 43.5C33.8257 43.5 34.5096 43.8249 35.3753 44.2363C36.3845 44.7157 37.6404 45.3125 39.9427 45.3125C42.2449 45.3125 43.5011 44.7157 44.5103 44.2363C45.376 43.825 46.0599 43.5 47.5723 43.5C49.0848 43.5 49.7687 43.8249 50.6343 44.2363C51.6436 44.7158 52.8996 45.3125 55.2019 45.3125V41.6875C53.6894 41.6875 53.0055 41.3626 52.1399 40.9512Z" fill="#FAEFEB"/>
<path id="Vector_2" d="M47.5723 50.75C45.2701 50.75 44.014 51.3468 43.0048 51.8262C42.139 52.2375 41.4552 52.5625 39.9427 52.5625C38.4301 52.5625 37.7465 52.2376 36.8808 51.8262C35.8716 51.3468 34.6157 50.75 32.3135 50.75C30.0112 50.75 28.7553 51.3469 27.7462 51.8262C26.8805 52.2375 26.1968 52.5625 24.6845 52.5625C23.1721 52.5625 22.4886 52.2376 21.623 51.8262C20.6139 51.3468 19.358 50.75 17.0558 50.75C14.7537 50.75 13.4977 51.3469 12.4886 51.8262C11.6229 52.2375 10.9392 52.5625 9.42684 52.5625C7.9145 52.5625 7.23082 52.2376 6.36512 51.8262C5.35601 51.3469 4.10001 50.75 1.79785 50.75V54.375C3.31019 54.375 3.99387 54.6999 4.85957 55.1113C5.86868 55.5907 7.12468 56.1875 9.42684 56.1875C11.729 56.1875 12.985 55.5906 13.9941 55.1113C14.8598 54.7 15.5435 54.375 17.0558 54.375C18.5682 54.375 19.2517 54.6999 20.1173 55.1113C21.1264 55.5907 22.3823 56.1875 24.6845 56.1875C26.9866 56.1875 28.2426 55.5906 29.2517 55.1113C30.1174 54.7 30.8012 54.375 32.3135 54.375C33.8257 54.375 34.5096 54.6999 35.3753 55.1113C36.3845 55.5907 37.6404 56.1875 39.9427 56.1875C42.2449 56.1875 43.5011 55.5907 44.5103 55.1113C45.376 54.7 46.0599 54.375 47.5723 54.375C49.0848 54.375 49.7687 54.6999 50.6343 55.1113C51.6436 55.5908 52.8996 56.1875 55.2019 56.1875V52.5625C53.6894 52.5625 53.0055 52.2376 52.1399 51.8262C51.1306 51.3468 49.8746 50.75 47.5723 50.75Z" fill="#FAEFEB"/>
<path id="Vector_3" d="M27.6098 30.8125H43.631V37.1562H47.1913V13.1268C47.1899 12.0266 47.5177 10.9521 48.131 10.0463L53.6907 1.8125H49.3701L45.1971 7.99267C44.175 9.50233 43.6287 11.2932 43.631 13.1268V18.125H27.6098V13.1268C27.6084 12.0266 27.9362 10.9521 28.5495 10.0463L34.1092 1.8125H29.7886L25.6156 7.99267C24.5935 9.50233 24.0472 11.2932 24.0496 13.1268V37.1562H27.6098V30.8125ZM27.6098 21.75H43.631V27.1875H27.6098V21.75Z" fill="#FAEFEB"/>
</g>
</svg>
