<svg width="40" height="41" viewBox="0 0 40 41" fill="none" xmlns="http://www.w3.org/2000/svg">
<path d="M39.1666 21.141V24.0563C39.1666 31.5313 39.1666 35.2707 36.9202 37.5937C34.6739 39.9167 31.0629 39.9167 23.8333 39.9167M38.1699 12.7441C37.1771 10.9252 35.3582 9.79821 31.7222 7.54037L27.8889 5.16179C24.046 2.77554 22.1236 1.58337 19.9999 1.58337C17.8763 1.58337 15.9558 2.77554 12.1109 5.16179L8.27758 7.54037C4.64167 9.79821 2.82659 10.9252 1.82992 12.7441C1.22234 13.8558 0.986585 15.1074 0.894585 16.9167M18.0833 39.9167C18.0833 35.3417 16.2658 30.9541 13.0308 27.7191C9.79584 24.4841 5.40824 22.6667 0.833252 22.6667" stroke="#B9562F" stroke-width="1.5" stroke-linecap="round"/>
<path d="M12.3333 39.9167C12.3333 36.8668 11.1216 33.9417 8.96498 31.785C6.80831 29.6284 3.88324 28.4167 0.833252 28.4167M6.58325 39.9167C6.58325 38.3918 5.97745 36.9292 4.89912 35.8509C3.82078 34.7725 2.35825 34.1667 0.833252 34.1667" stroke="#B9562F" stroke-width="1.5" stroke-linecap="round"/>
</svg>
