<svg width="82" height="82" viewBox="0 0 82 82" fill="none" xmlns="http://www.w3.org/2000/svg">
<path opacity="0.5" fill-rule="evenodd" clip-rule="evenodd" d="M72.6041 35.1917C72.6041 33.6821 71.3804 32.4584 69.8708 32.4584H12.1291C10.6195 32.4584 9.39575 33.6821 9.39575 35.1917V37.8958C9.39575 39.4055 10.6195 40.6292 12.1291 40.6292H69.8708C71.3804 40.6292 72.6041 39.4055 72.6041 37.8958V35.1917Z" fill="#1C1C1C"/>
<path fill-rule="evenodd" clip-rule="evenodd" d="M47.4018 11.1042C47.4018 10.1607 46.637 9.39587 45.6935 9.39587H41C40.0565 9.39587 39.2917 10.1607 39.2917 11.1042V13.1827V13.1894V18.3245C35.6939 18.7123 32.3157 20.3167 29.7329 22.8996C26.7447 25.8878 25.0659 29.9406 25.0659 34.1667V35.875H56.934V34.1667C56.934 29.9406 55.2552 25.8878 52.267 22.8996C49.6843 20.3169 46.3061 18.7123 42.7083 18.3245V14.891H45.6935C46.637 14.891 47.4018 14.1262 47.4018 13.1827V11.1042ZM32.1488 25.3155C34.4964 22.9681 37.6802 21.6492 41 21.6492C44.3198 21.6492 47.5036 22.9681 49.8511 25.3155C51.7921 27.2567 53.0299 29.7695 53.4003 32.4584H28.5997C28.9701 29.7695 30.2078 27.2567 32.1488 25.3155ZM67.4652 37.2125C68.4087 37.212 69.1738 37.9765 69.1742 38.92L69.1872 70.895C69.1875 71.8385 68.4229 72.6037 67.4795 72.6042C66.536 72.6045 65.7708 71.8401 65.7705 70.8966L65.7575 38.9215C65.7572 37.978 66.5216 37.2128 67.4652 37.2125ZM25.1094 37.2125C26.0529 37.212 26.8181 37.9765 26.8185 38.92L26.8314 70.895C26.8318 71.8385 26.0673 72.6037 25.1238 72.6042C24.1803 72.6045 23.4151 71.8401 23.4148 70.8966L23.4018 38.9215C23.4014 37.978 24.1661 37.2128 25.1094 37.2125ZM56.8764 37.2125C57.8197 37.212 58.5849 37.9765 58.5854 38.92L58.5982 70.895C58.5986 71.8385 57.8341 72.6037 56.8906 72.6042C55.9471 72.6045 55.1819 71.8401 55.1816 70.8966L55.1688 38.9215C55.1682 37.978 55.9329 37.2128 56.8764 37.2125ZM35.6985 37.2125C36.6421 37.212 37.407 37.9765 37.4076 38.92L37.4204 70.895C37.4207 71.8385 36.6562 72.6037 35.7127 72.6042C34.7692 72.6045 34.004 71.8401 34.0037 70.8966L33.9909 38.9215C33.9904 37.978 34.755 37.2128 35.6985 37.2125ZM46.2873 37.2125C47.2308 37.212 47.996 37.9765 47.9963 38.92L48.0093 70.895C48.0096 71.8385 47.2452 72.6037 46.3016 72.6042C45.3581 72.6045 44.593 71.8401 44.5926 70.8966L44.5796 38.9215C44.5793 37.978 45.3438 37.2128 46.2873 37.2125ZM14.5206 37.2125C15.4641 37.212 16.2293 37.9765 16.2297 38.92L16.2425 70.895C16.2429 71.8385 15.4784 72.6037 14.5349 72.6042C13.5914 72.6045 12.8262 71.8401 12.8259 70.8966L12.813 38.9215C12.8126 37.978 13.5771 37.2128 14.5206 37.2125Z" fill="#1C1C1C"/>
<path fill-rule="evenodd" clip-rule="evenodd" d="M9.39575 70.8966C9.39575 69.9531 10.1606 69.1882 11.1041 69.1882H70.8957C71.8393 69.1882 72.6041 69.9531 72.6041 70.8966C72.6041 71.8401 71.8393 72.6049 70.8957 72.6049H11.1041C10.1606 72.6049 9.39575 71.8401 9.39575 70.8966Z" fill="#1C1C1C"/>
</svg>
