<svg width="72" height="71" viewBox="0 0 72 71" fill="none" xmlns="http://www.w3.org/2000/svg">
<path d="M2 50.4028C2 49.4966 2.35997 48.6276 3.00072 47.9868C3.64147 47.3461 4.51051 46.9861 5.41667 46.9861H15.6667V35.0278L36.1667 21.3611L56.6667 35.0278V46.9861H66.9167C67.8228 46.9861 68.6919 47.3461 69.3326 47.9868C69.9734 48.6276 70.3333 49.4966 70.3333 50.4028V65.7778C70.3333 66.6839 69.9734 67.553 69.3326 68.1937C68.6919 68.8345 67.8228 69.1944 66.9167 69.1944H2V50.4028Z" stroke="#1C1C1C" stroke-width="3" stroke-linejoin="round"/>
<path d="M36.1667 4.27783V21.3612" stroke="black" stroke-opacity="0.5" stroke-width="3" stroke-linecap="round"/>
<path opacity="0.5" d="M43.0001 69.1944V46.9861H29.3334V69.1944M25.9167 69.1944H46.4167M56.6667 14.5278V4.27778C56.6667 4.27778 54.1042 9.40278 46.4167 4.27778C38.7292 -0.847222 36.1667 4.27778 36.1667 4.27778V14.5278C36.1667 14.5278 38.7292 9.40278 46.4167 14.5278C54.1042 19.6528 56.6667 14.5278 56.6667 14.5278Z" stroke="#1C1C1C" stroke-width="3" stroke-linecap="round" stroke-linejoin="round"/>
</svg>
