<svg width="82" height="82" viewBox="0 0 82 82" fill="none" xmlns="http://www.w3.org/2000/svg">
<path opacity="0.5" d="M20.5 41H61.5V75.1667H20.5V41Z" stroke="#1C1C1C" stroke-width="3" stroke-linecap="round" stroke-linejoin="round"/>
<path d="M47.8333 75.1667V61.5C47.8333 59.6877 47.1133 57.9496 45.8318 56.6681C44.5503 55.3866 42.8122 54.6667 40.9999 54.6667C39.1876 54.6667 37.4495 55.3866 36.168 56.6681C34.8865 57.9496 34.1666 59.6877 34.1666 61.5V75.1667M55.3773 32.4584C59.1527 21.73 51.7419 10.25 40.9999 10.25M40.9999 10.25C30.2579 10.25 22.8472 21.73 26.6226 32.4584M40.9999 10.25V6.83337M27.3333 41V34.1667M54.6666 41V34.1667M23.9166 32.4584H58.0832M61.4999 41L70.7317 44.4611C74.4149 45.8449 75.1666 46.928 75.1666 50.8605V75.1667H61.4999V41ZM6.83325 50.8605C6.83325 46.928 7.58492 45.8449 11.2681 44.4611L20.4999 41V75.1667H6.83325V50.8605Z" stroke="#1C1C1C" stroke-width="3" stroke-linecap="round" stroke-linejoin="round"/>
</svg>
