<svg width="82" height="82" viewBox="0 0 82 82" fill="none" xmlns="http://www.w3.org/2000/svg">
<g clip-path="url(#clip0_765_615)">
<path opacity="0.5" d="M37.5835 23.9167C37.5835 23.9167 32.971 32.959 30.7502 44.4167C28.5293 55.8745 29.0418 71.7501 29.0418 71.7501" stroke="#1C1C1C" stroke-width="3" stroke-linecap="round" stroke-linejoin="round"/>
<path d="M58.0031 39.7564C58.5942 40.1493 59.5287 40.4243 60.4426 40.6157C62.0348 40.9471 63.504 39.8538 63.463 38.2291C63.3861 35.1986 62.2039 30.2427 56.1889 26.2469C50.5087 22.4766 44.8695 22.4236 41.3127 22.9669C39.2849 23.2744 38.4769 25.4918 39.642 27.1813C40.6806 28.6898 41.8901 30.2119 42.7084 30.5041C44.4168 31.1105 46.4719 29.5098 47.9701 30.5041C49.4666 31.4966 49.0207 33.7926 50.5189 34.7868C52.0154 35.7811 53.9578 34.4793 55.456 35.4736C56.9508 36.4678 56.5066 38.7621 58.0031 39.7564ZM34.1668 29.0417C35.6325 28.5531 36.5396 26.9473 37.047 25.6609C37.4673 24.5983 37.0914 23.4264 36.1074 22.8456C33.8951 21.537 29.1716 19.7467 21.8019 21.8872C14.5158 24.0021 12.5939 28.8162 12.1036 31.6503C12.0466 31.9597 12.0543 32.2775 12.1265 32.5837C12.1986 32.8899 12.3335 33.1777 12.5227 33.4291C12.7119 33.6804 12.9512 33.8897 13.2255 34.0437C13.4997 34.1978 13.803 34.2932 14.1161 34.3239C15.0727 34.4315 16.1251 34.3837 16.7537 33.8507C18.1324 32.6805 18.5048 31.1481 20.0457 30.7347C21.5849 30.323 22.914 32.2004 24.4532 31.787C25.9941 31.3753 26.2059 29.0844 27.7451 28.671C29.2861 28.2593 31.6043 29.8959 34.1668 29.0417ZM46.1251 10.2501C41.8543 11.9584 37.5834 20.5001 37.5834 23.9167L59.7918 13.6667C57.4343 9.58209 50.3959 8.54172 46.1251 10.2501Z" stroke="#1C1C1C" stroke-width="3" stroke-linecap="round" stroke-linejoin="round"/>
<path d="M34.1668 8.5417C41.0002 10.971 39.941 19.8321 37.5835 23.9167L17.0835 10.1168C18.7918 6.83337 27.3335 6.11416 34.1668 8.5417Z" stroke="#1C1C1C" stroke-width="3" stroke-linecap="round" stroke-linejoin="round"/>
<path d="M44.4167 59.7917C58.5685 59.7917 66.625 62.8497 66.625 66.6251C66.625 70.4005 55.1518 73.4584 41 73.4584C26.8482 73.4584 15.375 70.4005 15.375 66.6251C15.375 65.7026 16.0583 64.8262 17.2969 64.0233" stroke="#1C1C1C" stroke-width="3" stroke-linecap="round"/>
</g>
<defs>
<clipPath id="clip0_765_615">
<rect width="82" height="82" fill="white"/>
</clipPath>
</defs>
</svg>
