<svg width="82" height="82" viewBox="0 0 82 82" fill="none" xmlns="http://www.w3.org/2000/svg">
<path d="M75.1666 75.1667H6.83325" stroke="#1C1C1C" stroke-width="3" stroke-linecap="round"/>
<path d="M58.0832 75.1667V20.5C58.0832 14.0562 58.0832 10.8377 56.081 8.83554C54.0788 6.83337 50.8603 6.83337 44.4165 6.83337H37.5832C31.1393 6.83337 27.9208 6.83337 25.9187 8.83554C23.9165 10.8377 23.9165 14.0562 23.9165 20.5V75.1667" stroke="#1C1C1C" stroke-width="3"/>
<path d="M71.75 75.1667V29.0417C71.75 24.2447 71.75 21.8428 70.5986 20.1208C70.0999 19.3743 69.459 18.7335 68.7126 18.2348C66.9906 17.0834 64.5887 17.0834 59.7917 17.0834M10.25 75.1667V29.0417C10.25 24.2447 10.25 21.8428 11.4014 20.1208C11.9001 19.3743 12.541 18.7335 13.2874 18.2348C15.0094 17.0834 17.4113 17.0834 22.2083 17.0834" stroke="#1C1C1C" stroke-width="3"/>
<path d="M41 75.1667V64.9167" stroke="#1C1C1C" stroke-width="3" stroke-linecap="round"/>
<path opacity="0.5" d="M34.1665 41H47.8332M18.7915 37.5834H23.9165M18.7915 47.8334H23.9165M58.0832 37.5834H63.2082M58.0832 47.8334H63.2082M18.7915 27.3334H23.9165M58.0832 27.3334H63.2082M34.1665 51.25H47.8332" stroke="#1C1C1C" stroke-width="3" stroke-linecap="round"/>
<path d="M40.9998 30.75V17.0834M47.8332 23.9167H34.1665" stroke="#1C1C1C" stroke-width="3" stroke-linecap="round" stroke-linejoin="round"/>
</svg>
